<?xml version="1.0" encoding="UTF-8"?>
<!-- This file is generated by npm run build:icons -->
<svg xmlns="http://www.w3.org/2000/svg" xmlns:xlink="http://www.w3.org/1999/xlink" width="0" height="0">
<defs>
<symbol viewBox="0 0 24 10" id="ApplePay"><path fill="#000008" d="M4.653 1.499c.266-.334.447-.781.4-1.239-.39.02-.867.258-1.143.591-.247.286-.466.753-.41 1.19.439.039.876-.218 1.153-.542m.394.628c-.636-.037-1.177.362-1.48.362-.304 0-.77-.342-1.273-.333-.655.01-1.262.38-1.595.969C.016 4.303.52 6.05 1.184 7.01c.322.475.711.997 1.224.979.484-.02.674-.314 1.263-.314s.76.314 1.272.304c.532-.01.864-.475 1.187-.95.37-.541.522-1.064.531-1.092-.01-.01-1.025-.4-1.034-1.568-.01-.978.797-1.444.835-1.472-.456-.674-1.168-.75-1.415-.77m5.54-1.323c1.382 0 2.345.953 2.345 2.34 0 1.393-.983 2.35-2.38 2.35H9.02V7.93H7.915V.804zM9.02 4.566h1.27c.962 0 1.51-.518 1.51-1.417 0-.898-.548-1.412-1.506-1.412H9.021zm4.201 1.887c0-.909.696-1.467 1.93-1.536l1.423-.084v-.4c0-.578-.39-.923-1.042-.923-.617 0-1.002.296-1.096.76h-1.008c.06-.938.86-1.63 2.144-1.63 1.259 0 2.064.667 2.064 1.71v3.58h-1.023v-.855h-.024c-.301.578-.958.943-1.64.943-1.017 0-1.728-.632-1.728-1.565m3.353-.47v-.41l-1.279.08c-.637.044-.998.326-.998.77 0 .455.376.75.949.75.745 0 1.328-.513 1.328-1.19M18.6 9.84v-.864c.08.02.257.02.346.02.494 0 .76-.207.924-.74 0-.01.094-.317.094-.322l-1.877-5.2h1.156l1.313 4.228h.02l1.314-4.228h1.126L21.07 8.201c-.445 1.26-.958 1.664-2.035 1.664-.089 0-.355-.01-.434-.024"></path></symbol>
<symbol viewBox="0 0 135 23" id="calvinKlein"><path fill="#fff" fill-rule="evenodd" d="M11.012 20.676c-4.72 0-8.75-4.281-8.75-8.95 0-4.653 3.945-9.02 8.716-9.02 3.136 0 5.394 1.518 7.232 3.895h2.31c-.692-1.248-1.434-2.394-2.563-3.288C16.018 1.746 13.507.82 11.012.82 5.027.819.156 5.759.156 11.709c0 5.967 4.939 10.856 10.89 10.856 2.427 0 4.804-.893 6.709-2.394 1.197-.96 2.04-2.208 2.85-3.49h-2.31c-1.822 2.377-4.147 3.995-7.283 3.995M34.949 9.298c-1.449-1.871-3.422-3.051-5.866-3.051-4.383 0-7.99 3.557-7.99 7.94s3.625 7.973 7.99 7.973c2.546 0 4.315-1.062 5.866-3.017v2.663h1.905V6.617H34.95zm-5.967 11.109c-3.355 0-6.001-2.916-6.001-6.203 0-3.27 2.63-6.204 6.001-6.204 3.355 0 5.967 2.934 5.967 6.204 0 3.287-2.63 6.203-5.967 6.203m10.182 1.399h2.04V1.256h-2.04zm9.744-2.411L43.749 6.617h-2.023l6.187 15.189h2.056l6.17-15.189H54.15zm8.074 2.41h2.04V6.618h-2.04zm0-17.143h2.04V1.256h-2.04zm10.823 1.584c-1.922 0-3.287 1.012-4.551 2.36V6.618h-1.889v15.189h2.006V12.55C63.354 10.107 65.377 8 67.838 8c3.085 0 4.636 2.68 4.636 5.445v8.362h1.887v-8.362c0-3.945-2.308-7.199-6.556-7.199m25.488-4.99L84.021 13.04V1.256h-2.005v20.55h2.005v-5.647l2.63-3.27 6.693 8.917h2.546L87.932 11.27 95.89 1.256zm3.338 20.55h1.99V1.256h-1.99zm18.46-11.362c-1.383-2.58-4.148-4.198-7.065-4.198-4.348 0-8.024 3.625-8.024 7.974 0 4.382 3.709 7.94 8.06 7.94a8.2 8.2 0 0 0 5.612-2.26c.911-.86 1.45-1.938 1.938-3.067h-2.14c-1.079 2.107-2.984 3.573-5.446 3.573-1.5 0-2.966-.607-4.078-1.635-1.148-1.045-1.653-2.327-1.873-3.843h14.01c.001-1.585-.219-3.102-.994-4.484m-12.947 2.73c.608-2.848 2.849-5.174 5.918-5.174 2.579 0 5.343 1.585 5.95 5.175zm15.425 8.632h2.005V6.617h-2.005zm0-17.076h2.005V1.256h-2.005zm10.823 1.516c-1.957 0-3.322 1.012-4.603 2.36V6.618h-1.922v15.189h2.023V12.55c-.016-2.46 2.057-4.55 4.535-4.55 3.069 0 4.687 2.68 4.687 5.445v8.362H135v-8.362c0-3.945-2.344-7.199-6.608-7.199" clip-rule="evenodd"></path></symbol>
<symbol viewBox="0 0 24 24" id="cart"><path fill="#000" d="M9.375 20.25a1.875 1.875 0 1 1-3.75 0 1.875 1.875 0 0 1 3.75 0m7.875-1.875a1.875 1.875 0 1 0 0 3.75 1.875 1.875 0 0 0 0-3.75m4.825-11.294-2.558 8.316a2.61 2.61 0 0 1-2.51 1.853H7.775a2.64 2.64 0 0 1-2.525-1.904L2.045 4.125h-.92a1.125 1.125 0 0 1 0-2.25h1.202a1.88 1.88 0 0 1 1.803 1.36l.683 2.39H21a1.125 1.125 0 0 1 1.075 1.456m-2.598.794H5.455l1.959 6.853a.375.375 0 0 0 .36.272h9.233a.375.375 0 0 0 .36-.264z"></path></symbol>
<symbol viewBox="0 0 8 13" id="facebook"><path fill="#fff" d="M2.709 12.888V7.333H.839V5.17h1.87V3.574C2.709 1.72 3.84.713 5.492.713c.792 0 1.472.059 1.67.085v1.936H6.016c-.898 0-1.072.427-1.072 1.054V5.17h2.143l-.28 2.164H4.945v5.554z"></path></symbol>
<symbol viewBox="0 0 14 14" id="github"><path fill="#000" fill-rule="evenodd" d="M6.607.81a6.464 6.464 0 0 0-6.48 6.48c0 2.862 1.863 5.292 4.428 6.156.324.054.432-.135.432-.324v-1.107c-1.81.405-2.187-.864-2.187-.864-.297-.756-.73-.945-.73-.945-.593-.405.055-.405.055-.405.648.054.999.675.999.675.567 1 1.512.702 1.89.54.054-.432.216-.702.405-.864-1.431-.162-2.943-.729-2.943-3.213 0-.702.243-1.296.675-1.728-.054-.162-.297-.81.054-1.728 0 0 .54-.162 1.782.675a6.5 6.5 0 0 1 1.62-.216c.54 0 1.107.081 1.62.216 1.242-.837 1.782-.675 1.782-.675.35.891.135 1.54.054 1.728.405.46.675 1.026.675 1.728 0 2.484-1.512 3.024-2.97 3.186.243.19.432.594.432 1.188v1.782c0 .162.108.378.459.324a6.45 6.45 0 0 0 4.428-6.129c0-3.59-2.89-6.48-6.48-6.48" clip-rule="evenodd"></path></symbol>
<symbol viewBox="0 0 26 11" id="GPay"><path fill="#3C4043" d="M12.082 7.956h-.9V.963h2.383c.604 0 1.12.201 1.54.604q.646.604.646 1.474c0 .595-.215 1.086-.646 1.484q-.625.596-1.54.594h-1.483zm0-6.132v2.439h1.502a1.2 1.2 0 0 0 .89-.36c.238-.24.36-.53.36-.857 0-.323-.122-.609-.36-.847a1.17 1.17 0 0 0-.89-.37h-1.502zm6.019 1.189q.997 0 1.573.534.576.533.575 1.46v2.949h-.856V7.29h-.038q-.556.821-1.483.82-.794.001-1.325-.469a1.5 1.5 0 0 1-.534-1.17q0-.745.562-1.18.563-.44 1.498-.44.802 0 1.315.295V4.94a1.02 1.02 0 0 0-.37-.795 1.27 1.27 0 0 0-.87-.328q-.753-.002-1.19.637l-.79-.496q.654-.947 1.933-.946m-1.16 3.473q-.002.352.299.585a1.1 1.1 0 0 0 .697.234q.57 0 1.011-.421.444-.419.445-.988-.42-.331-1.17-.332-.548.001-.913.262-.371.274-.37.66m8.196-3.317-2.995 6.89h-.927l1.114-2.411-1.976-4.48h.979l1.423 3.436h.018l1.386-3.435z"></path><path fill="#4285F4" d="M8.507 4.553a4.7 4.7 0 0 0-.075-.843H4.665v1.545h2.17A1.86 1.86 0 0 1 6.028 6.5v1.002H7.32c.754-.697 1.186-1.73 1.186-2.948"></path><path fill="#34A853" d="M6.03 6.5c-.36.242-.823.384-1.364.384-1.046 0-1.934-.705-2.252-1.656H1.082v1.034A4.01 4.01 0 0 0 4.666 8.47c1.083 0 1.993-.356 2.655-.969z"></path><path fill="#FABB05" d="M2.289 4.462q.002-.402.125-.767V2.66H1.082a4 4 0 0 0-.426 1.8c0 .649.154 1.26.426 1.801L2.414 5.23a2.4 2.4 0 0 1-.125-.767"></path><path fill="#E94235" d="M4.666 2.04c.591 0 1.12.203 1.538.6L7.35 1.498A3.85 3.85 0 0 0 4.666.453 4.01 4.01 0 0 0 1.082 2.66l1.332 1.034c.318-.95 1.206-1.656 2.252-1.656"></path></symbol>
<symbol viewBox="0 0 110 26" id="gucci"><g clip-path="url(#a)"><path fill="#fff" d="m99.633 8.62-.205.065q-1.192-2.466-3.406-3.925-2.18-1.46-5.485-1.46a8.5 8.5 0 0 0-3.51.747 8.7 8.7 0 0 0-2.929 2.043q-1.226 1.298-1.976 3.146-.75 1.85-.75 4.086 0 2.239.75 4.087.75 1.849 1.976 3.178a8.95 8.95 0 0 0 2.93 2.011 8.8 8.8 0 0 0 3.509.714q3.27 0 5.314-.973 2.078-1.006 3.51-3.049l.204.065-.068 2.075a9.5 9.5 0 0 1-1.806 1.395q-1.022.584-2.214 1.005-1.159.39-2.419.584-1.26.228-2.52.227-2.625 0-5.009-.81-2.385-.812-4.19-2.27a11.1 11.1 0 0 1-2.862-3.568q-1.056-2.108-1.056-4.67 0-2.563 1.056-4.638a11 11 0 0 1 2.862-3.6q1.805-1.493 4.19-2.27 2.386-.811 5.008-.811 1.26 0 2.521.194 1.26.195 2.419.616 1.193.39 2.214 1.006 1.021.584 1.806 1.362zm-75.07 6.195q-.375.162-.716.422a.85.85 0 0 0-.34.713v3.99q-1.636 2.237-4.191 3.47-2.555 1.232-5.655 1.232a15.5 15.5 0 0 1-5.008-.81q-2.384-.811-4.19-2.271A11.1 11.1 0 0 1 1.6 17.993Q.545 15.885.545 13.323t1.056-4.638a11 11 0 0 1 2.862-3.6q1.805-1.491 4.19-2.27 2.386-.81 5.008-.81 1.26 0 2.52.194 1.261.195 2.42.616 1.192.39 2.214 1.005a8.6 8.6 0 0 1 1.805 1.363l.137 3.437-.204.065q-1.192-2.464-3.407-3.924-2.18-1.46-5.485-1.46a8.5 8.5 0 0 0-3.509.746 8.7 8.7 0 0 0-2.93 2.043Q5.997 7.388 5.248 9.236q-.75 1.85-.75 4.087 0 2.205.716 4.054.75 1.848 1.975 3.178a9.4 9.4 0 0 0 2.93 2.043 8.9 8.9 0 0 0 3.543.714q3.544 0 6.064-1.297V15.95a.82.82 0 0 0-.374-.714 4 4 0 0 0-.682-.422l.031-.162q.17.03.614.065.443.03.92.065h2.93q.408-.03.783-.065.375-.03.579-.065zm24.675-12.13a4 4 0 0 0-.682.422q-.34.26-.374.973-.032.778-.068 1.978 0 1.168-.031 2.66 0 1.491-.032 3.243v3.632q-.03 2.109-.545 3.6-.51 1.492-1.362 2.497a6.6 6.6 0 0 1-1.84 1.59 8.8 8.8 0 0 1-1.976.875 7.4 7.4 0 0 1-1.805.39q-.852.096-1.33.097-1.941 0-3.746-.487-1.806-.453-3.169-1.492-1.362-1.037-2.18-2.691-.817-1.655-.817-4.022V8.912q0-1.556-.032-2.79 0-1.263-.03-2.042-.032-.714-.375-.973a4 4 0 0 0-.682-.422l.031-.162q.171.03.546.065.408.029.817.064.444 0 .852.03h1.226q.41-.03.852-.03.443-.03.818-.064.408-.03.579-.065l.03.162q-.373.162-.715.422-.306.26-.34.973-.032.779-.068 2.043v9.827q0 3.535 1.737 5.222 1.737 1.686 5.144 1.686.988 0 2.249-.227a6.1 6.1 0 0 0 2.35-1.038q1.124-.778 1.874-2.205.783-1.428.783-3.795 0-2.562-.03-4.378 0-1.849-.032-3.146 0-1.33-.031-2.27-.031-.941-.068-1.72-.03-.713-.375-.972a4 4 0 0 0-.68-.422l.03-.162q.375.064.852.13.477.03.886.03.374 0 .851-.03.511-.065.886-.13zm24.72 5.935-.205.065q-1.192-2.466-3.406-3.925-2.18-1.46-5.485-1.46a8.5 8.5 0 0 0-3.51.747 8.7 8.7 0 0 0-2.929 2.043q-1.227 1.298-1.976 3.146-.75 1.85-.75 4.086 0 2.239.75 4.087.75 1.849 1.976 3.178a8.95 8.95 0 0 0 2.93 2.011 8.8 8.8 0 0 0 3.509.714q3.27 0 5.314-.973 2.078-1.006 3.51-3.049l.203.065-.067 2.075a9.5 9.5 0 0 1-1.806 1.395q-1.022.584-2.214 1.005-1.159.39-2.42.584-1.26.228-2.52.227-2.623 0-5.008-.81-2.384-.812-4.19-2.27a11.1 11.1 0 0 1-2.862-3.568q-1.056-2.108-1.056-4.67 0-2.563 1.056-4.638a11 11 0 0 1 2.862-3.6q1.806-1.493 4.19-2.27 2.386-.811 5.008-.811 1.26 0 2.52.194 1.261.195 2.42.616a10.7 10.7 0 0 1 2.214 1.006q1.021.583 1.806 1.362zM109.9 24.09a8 8 0 0 0-.579-.064q-.375 0-.818-.03-.442 0-.852-.03h-2.043q-.41.03-.818.065-.375.03-.579.065l-.031-.13q.34-.162.681-.422.34-.26.375-.973.03-.78.031-1.622.031-.843.031-1.913V7.587q0-1.07-.031-1.881 0-.843-.031-1.622-.032-.713-.375-.973a3 3 0 0 0-.681-.453l.031-.13q.204.064.579.097.408 0 .818.03.443.03.851.03h1.192q.41-.03.852-.03.443-.03.818-.065.408-.03.579-.065l.031.13q-.375.163-.716.454-.306.26-.341.973-.03.779-.067 1.622v15.243q.03.843.067 1.622.032.713.341.973.341.258.716.421z"></path></g><defs><clipPath id="a"><path fill="#fff" d="M.545.701h109.387v25.243H.545z"></path></clipPath></defs></symbol>
<symbol viewBox="0 0 14 15" id="instagram"><path fill="#000" d="M7 2.031c1.81 0 2.024.007 2.738.04.43.005.855.083 1.258.233a2.24 2.24 0 0 1 1.286 1.285c.15.403.228.829.233 1.258.032.715.04.93.04 2.738 0 1.809-.007 2.023-.04 2.737-.005.43-.084.855-.233 1.258a2.24 2.24 0 0 1-1.286 1.286c-.403.15-.828.228-1.258.233-.714.033-.928.04-2.737.04s-2.023-.007-2.738-.04a3.8 3.8 0 0 1-1.258-.233A2.24 2.24 0 0 1 1.72 11.58a3.8 3.8 0 0 1-.233-1.258c-.032-.714-.04-.928-.04-2.737s.008-2.023.04-2.738c.006-.43.084-.855.233-1.258a2.24 2.24 0 0 1 1.286-1.285c.403-.15.829-.228 1.258-.234.715-.032.93-.04 2.738-.04M7 .81c-1.838 0-2.07.007-2.792.04a5 5 0 0 0-1.645.315c-.452.17-.861.437-1.2.781a3.3 3.3 0 0 0-.782 1.2 5 5 0 0 0-.314 1.645c-.033.722-.04.954-.04 2.793 0 1.838.007 2.07.04 2.792.011.563.118 1.119.315 1.646.17.452.437.861.782 1.2.338.344.747.61 1.2.78a5 5 0 0 0 1.644.316c.723.032.954.04 2.793.04s2.07-.007 2.793-.04a5 5 0 0 0 1.646-.315 3.47 3.47 0 0 0 1.98-1.982 5 5 0 0 0 .315-1.645c.032-.722.04-.954.04-2.793 0-1.838-.008-2.07-.04-2.792a5 5 0 0 0-.316-1.646 3.3 3.3 0 0 0-.781-1.2 3.3 3.3 0 0 0-1.2-.78A5 5 0 0 0 9.793.85C9.071.818 8.839.81 7.001.81"></path><path fill="#000" d="M7.002 4.107a3.479 3.479 0 1 0 0 6.958 3.479 3.479 0 0 0 0-6.958m0 5.737a2.258 2.258 0 1 1 0-4.516 2.258 2.258 0 0 1 0 4.516m3.616-5.062a.813.813 0 1 0 0-1.626.813.813 0 0 0 0 1.626"></path></symbol>
<symbol viewBox="0 0 125 20" id="logo"><path fill="#000" d="M9.135 19.588c-6.09-.021-8.967-1.911-8.82-6.489h5.229c.063 1.197 1.071 1.932 3.591 1.953 2.226.021 3.255-.609 3.255-1.428 0-.567-.315-1.155-2.037-1.407l-2.268-.357c-3.339-.546-7.35-.945-7.35-5.46C.735 2.914 3.57.772 9.177.772c5.061 0 8.589 1.407 8.484 6.447h-5.187c-.21-1.176-1.197-1.911-3.423-1.911-1.932 0-2.73.588-2.73 1.386 0 .504.315 1.113 1.659 1.323l1.869.315c3.507.588 8.316.693 8.316 5.523 0 3.843-2.982 5.754-9.03 5.733M31.929 1.36h5.817V19h-5.817v-6.384h-6.846V19h-5.817V1.36h5.817v6.384h6.846zm16.976 18.228c-6.069 0-9.996-3.759-9.996-9.408S42.836.772 48.905.772s9.996 3.759 9.996 9.408-3.927 9.408-9.996 9.408m0-5.019c2.31 0 4.221-1.596 4.221-4.389s-1.91-4.389-4.22-4.389-4.222 1.596-4.222 4.389 1.911 4.389 4.221 4.389M60.068 19V1.36h10.017c4.81 0 7.665 2.142 7.665 6.888s-2.856 6.888-7.644 6.888h-4.22V19zm5.817-8.694h3.696c1.407 0 2.31-.693 2.31-2.058s-.903-2.058-2.289-2.058h-3.717zm14.775 9.03c-1.575 0-2.898-1.302-2.898-2.856s1.323-2.856 2.898-2.856 2.898 1.302 2.898 2.856-1.323 2.856-2.898 2.856m13.96.252c-5.944 0-9.913-3.759-9.913-9.408S88.677.772 94.62.772c4.305 0 8.715 1.89 9.303 7.854h-5.544c-.483-1.932-1.848-2.835-3.759-2.835-2.31 0-4.137 1.722-4.137 4.389s1.827 4.389 4.137 4.389c1.911 0 3.276-.903 3.76-2.877h5.543c-.588 6.006-4.956 7.896-9.303 7.896m20.361 0c-6.069 0-9.996-3.759-9.996-9.408s3.927-9.408 9.996-9.408 9.996 3.759 9.996 9.408-3.927 9.408-9.996 9.408m0-5.019c2.31 0 4.221-1.596 4.221-4.389s-1.911-4.389-4.221-4.389-4.221 1.596-4.221 4.389 1.911 4.389 4.221 4.389"></path></symbol>
<symbol stroke-linecap="round" stroke-linejoin="round" stroke-width="2" viewBox="0 0 24 24" id="lucide/key-round"><path d="M2 18v3c0 .6.4 1 1 1h4v-3h3v-3h2l1.4-1.4a6.5 6.5 0 1 0-4-4Z"></path><circle cx="16.5" cy="7.5" r=".5" fill="currentColor"></circle></symbol>
<symbol stroke-linecap="round" stroke-linejoin="round" stroke-width="2" viewBox="0 0 24 24" id="lucide/lock"><rect width="18" height="11" x="3" y="11" rx="2" ry="2"></rect><path d="M7 11V7a5 5 0 0 1 10 0v4"></path></symbol>
<symbol stroke-linecap="round" stroke-linejoin="round" stroke-width="2" viewBox="0 0 24 24" id="lucide/move-right"><path d="m18 8 4 4-4 4M2 12h20"></path></symbol>
<symbol stroke-linecap="round" stroke-linejoin="round" stroke-width="2" viewBox="0 0 24 24" id="lucide/scan-face"><path d="M3 7V5a2 2 0 0 1 2-2h2m10 0h2a2 2 0 0 1 2 2v2m0 10v2a2 2 0 0 1-2 2h-2M7 21H5a2 2 0 0 1-2-2v-2m5-3s1.5 2 4 2 4-2 4-2M9 9h.01M15 9h.01"></path></symbol>
<symbol stroke-linecap="round" stroke-linejoin="round" stroke-width="2" viewBox="0 0 24 24" id="lucide/shield"><path d="M20 13c0 5-3.5 7.5-7.66 8.95a1 1 0 0 1-.67-.01C7.5 20.5 4 18 4 13V6a1 1 0 0 1 1-1c2 0 4.5-1.2 6.24-2.72a1.17 1.17 0 0 1 1.52 0C14.51 3.81 17 5 19 5a1 1 0 0 1 1 1z"></path></symbol>
<symbol stroke-linecap="round" stroke-linejoin="round" stroke-width="2" viewBox="0 0 24 24" id="lucide/star-half"><path d="M12 17.8 5.8 21 7 14.1 2 9.3l7-1L12 2"></path></symbol>
<symbol stroke-linecap="round" stroke-linejoin="round" stroke-width="2" viewBox="0 0 24 24" id="lucide/star"><path d="m12 2 3.09 6.26L22 9.27l-5 4.87 1.18 6.88L12 17.77l-6.18 3.25L7 14.14 2 9.27l6.91-1.01z"></path></symbol>
<symbol stroke-linecap="round" stroke-linejoin="round" stroke-width="2" viewBox="0 0 24 24" id="lucide/x"><path d="M18 6 6 18M6 6l12 12"></path></symbol>
<symbol viewBox="0 0 16.875 13.125" id="mail"><path fill="currentColor" d="M15.938 0h-15A.94.94 0 0 0 0 .938v10.625a1.56 1.56 0 0 0 1.563 1.562h13.75a1.56 1.56 0 0 0 1.562-1.562V.938A.94.94 0 0 0 15.938 0m-7.5 6.54-5.09-4.665h10.18zm-2.751.022-3.812 3.494V3.07zm1.387 1.272.73.67a.94.94 0 0 0 1.267 0l.73-.67 3.726 3.416H3.347zm4.114-1.271L15 3.069v6.987z"></path></symbol>
<symbol viewBox="0 0 23 14" id="Mastercard"><path fill="#FF5F00" d="M14.092 1.584H8.208v10.573h5.884z"></path><path fill="#EB001B" d="M8.582 6.87a6.71 6.71 0 0 1 2.568-5.286 6.723 6.723 0 1 0 0 10.573A6.71 6.71 0 0 1 8.582 6.87"></path><path fill="#F79E1B" d="M22.028 6.87a6.722 6.722 0 0 1-10.878 5.286 6.724 6.724 0 0 0 0-10.572A6.723 6.723 0 0 1 22.028 6.87m-.641 4.167v-.217h.087v-.044h-.222v.044h.087v.217zm.431 0v-.261h-.068l-.078.18-.079-.18h-.068v.26h.048v-.196l.074.17h.05l.073-.17v.197z"></path></symbol>
<symbol viewBox="0 0 24 24" id="menu"><g clip-path="url(#a)"><path fill="#fff" d="M-16-54h390v4461H-16z"></path><path fill="#000" d="M21.375 12a1.125 1.125 0 0 1-1.125 1.125H3.75a1.125 1.125 0 1 1 0-2.25h16.5A1.125 1.125 0 0 1 21.375 12M3.75 7.125h16.5a1.125 1.125 0 0 0 0-2.25H3.75a1.125 1.125 0 0 0 0 2.25m16.5 9.75H3.75a1.125 1.125 0 1 0 0 2.25h16.5a1.125 1.125 0 1 0 0-2.25"></path></g><defs><clipPath id="a"><path fill="#fff" d="M-16-54h390v4461H-16z"></path></clipPath></defs></symbol>
<symbol viewBox="0 0 31 9" id="Paypal"><path fill="#253B80" fill-rule="evenodd" d="M4.227.125H1.923a.32.32 0 0 0-.316.27L.675 6.302a.192.192 0 0 0 .19.222h1.1a.32.32 0 0 0 .316-.27l.251-1.594a.32.32 0 0 1 .316-.27h.73c1.517 0 2.393-.734 2.622-2.19.103-.636.004-1.136-.294-1.487C5.579.33 4.998.125 4.226.125m.265 2.158c-.125.826-.757.826-1.368.826h-.347l.243-1.543a.19.19 0 0 1 .19-.162h.16c.415 0 .808 0 1.01.237.122.141.159.351.112.642m6.62-.027H10.01a.19.19 0 0 0-.19.162l-.049.309-.077-.112c-.239-.347-.771-.462-1.303-.462-1.219 0-2.26.923-2.463 2.218-.105.646.045 1.263.411 1.694.336.396.817.561 1.39.561.982 0 1.527-.631 1.527-.631l-.05.306a.192.192 0 0 0 .19.223h.993a.32.32 0 0 0 .317-.27l.596-3.776a.19.19 0 0 0-.19-.222M9.576 4.403a1.23 1.23 0 0 1-1.244 1.053c-.32 0-.577-.103-.741-.297-.163-.193-.225-.469-.173-.775.1-.625.608-1.062 1.236-1.062.313 0 .568.104.736.3.168.199.234.476.186.781m6.305-2.147h1.108c.155 0 .246.174.158.301L13.459 7.88a.32.32 0 0 1-.263.137h-1.108a.192.192 0 0 1-.156-.303l1.148-1.62-1.221-3.583a.192.192 0 0 1 .182-.254h1.09c.14 0 .266.093.307.228l.648 2.164 1.529-2.252a.32.32 0 0 1 .265-.14" clip-rule="evenodd"></path><path fill="#179BD7" fill-rule="evenodd" d="m27.9 6.302.945-6.015a.19.19 0 0 1 .19-.162h1.064c.117 0 .207.105.189.221l-.932 5.907a.32.32 0 0 1-.317.27h-.95a.192.192 0 0 1-.19-.221M20.659.125h-2.304a.32.32 0 0 0-.316.27l-.932 5.907a.192.192 0 0 0 .19.221h1.182c.11 0 .204-.08.22-.189l.265-1.674a.32.32 0 0 1 .316-.27h.73c1.517 0 2.392-.735 2.621-2.19.104-.637.005-1.137-.294-1.487C22.01.328 21.43.125 20.66.125m.266 2.157c-.126.827-.758.827-1.369.827h-.347l.244-1.544a.19.19 0 0 1 .19-.162h.159c.416 0 .808 0 1.011.237.121.142.158.352.112.642m6.62-.026h-1.103a.19.19 0 0 0-.19.162l-.048.308-.078-.112c-.238-.346-.77-.462-1.302-.462-1.22 0-2.26.923-2.463 2.218-.105.646.044 1.264.41 1.695.338.396.818.56 1.39.56.982 0 1.527-.63 1.527-.63l-.049.306a.192.192 0 0 0 .19.222h.993a.32.32 0 0 0 .316-.27l.597-3.776a.192.192 0 0 0-.19-.221m-1.538 2.146a1.23 1.23 0 0 1-1.245 1.054c-.32 0-.576-.103-.74-.298-.164-.193-.225-.468-.174-.775.1-.625.608-1.061 1.237-1.061.313 0 .567.104.735.3.169.199.236.475.187.78" clip-rule="evenodd"></path></symbol>
<symbol viewBox="0 0 127 21" id="prada"><g clip-path="url(#a)"><path fill="#fff" fill-rule="evenodd" d="m0 .592 1.92 2.17v15.882L.497 20.723l8.713.013-1.57-1.912-.164-5.72 8.401.046c2.547-.85 5.164-2.662 5.29-6.325-.04-3.55-2.202-5.827-4.712-6.28zm7.165 1.015v10.204l6.446.047c1.466-1.186 2.578-2.094 2.534-4.94-.021-2.321-.51-4.345-2.668-5.31zM25.199.476l1.92 2.17V18.53l-1.423 2.08 8.713.012-1.57-1.912-.164-5.72h.035l9.001 7.696 7.47-.06-6.817-5.912h-5.692L34.666 13l6.41.034c2.547-.85 5.164-2.661 5.29-6.325C46.326 3.16 44.164.883 41.654.43zm7.165 1.016v10.203l6.446.047c1.467-1.186 2.578-2.094 2.534-4.94-.021-2.321-.51-4.346-2.668-5.31zM56.374.453h7.512l9.779 18.191c.423 1.405 1.689 1.232 2.534 1.848H66.73l1.422-.446-.089-1.355-2.445-3.925-8.312.047-1.778 3.786c-.06.43-.52.758-.178 1.293l.667.646-4.09-.093 1.779-.553 6.711-14.175v-.97L57.583.955zm1.458 13.064 3.453-6.553 3.594 6.516zM107.174.493h7.512l9.78 18.191c.423 1.405 1.689 1.232 2.534 1.847h-9.469l1.423-.447-.089-1.354-2.445-3.924-8.312.047-1.778 3.785c-.06.432-.519.758-.179 1.293l.667.647-4.089-.093 1.779-.554 6.711-14.174v-.97L108.384.994zm1.459 13.064 3.453-6.552 3.595 6.515zM78.797.264 92.18.338c4.31 1.012 7.052 3.651 7.902 8.255l-.036 3.592c-.786 4.102-3.36 6.933-7.901 8.366l-13.42.038-.001-.435c2.04-.155 2.203-.388 2.208-1.602V2.19c-.022-.9-.202-1.458-2.17-1.52zm7.607 1.4-.013 17.704c1.765.006 3.297.172 4.162-.27 1.96-.898 2.87-2.276 2.954-3.571L93.46 5.073c0-1.672-1.81-2.853-2.856-3.16-.747-.278-2.239-.29-4.2-.249" clip-rule="evenodd"></path></g><defs><clipPath id="a"><path fill="#fff" d="M0 0h127v21H0z"></path></clipPath></defs></symbol>
<symbol viewBox="0 0 24 24" id="profile"><path fill="#000" d="M12 1.875A10.125 10.125 0 1 0 22.125 12 10.137 10.137 0 0 0 12 1.875M7.46 18.428a5.625 5.625 0 0 1 9.08 0 7.85 7.85 0 0 1-9.08 0m1.915-7.178a2.625 2.625 0 1 1 5.25 0 2.625 2.625 0 0 1-5.25 0m8.813 5.62a7.8 7.8 0 0 0-2.72-2.196 4.875 4.875 0 1 0-6.937 0 7.8 7.8 0 0 0-2.719 2.195 7.875 7.875 0 1 1 12.366 0z"></path></symbol>
<symbol viewBox="0 0 24 24" id="search"><path fill="#000" d="m21.796 20.204-4.452-4.454a8.636 8.636 0 1 0-1.594 1.594l4.456 4.457a1.126 1.126 0 1 0 1.594-1.594zM4.125 10.5a6.375 6.375 0 1 1 6.375 6.375A6.38 6.38 0 0 1 4.125 10.5"></path></symbol>
<symbol viewBox="0 0 44 44" id="star"><path fill="#000" d="M22 0c.747 11.827 10.173 21.253 22 22-11.827.747-21.253 10.173-22 22-.747-11.827-10.173-21.253-22-22 11.827-.747 21.253-10.173 22-22"></path></symbol>
<symbol viewBox="0 0 12 10" id="twitter"><path fill="#000" d="M11.207 1.567a5 5 0 0 1-1.327.372A2.24 2.24 0 0 0 10.881.682a5 5 0 0 1-1.466.559A2.32 2.32 0 0 0 7.739.519a2.285 2.285 0 0 0-2.282 2.282c0 .186.023.349.07.512A6.52 6.52 0 0 1 .801.915C.615 1.265.5 1.637.5 2.055c0 .792.396 1.49 1.024 1.91a2.7 2.7 0 0 1-1.047-.28v.024a2.3 2.3 0 0 0 1.839 2.258c-.187.046-.396.07-.606.07-.14 0-.302-.024-.442-.047.303.908 1.14 1.583 2.142 1.583a4.66 4.66 0 0 1-2.84.978c-.187 0-.373 0-.536-.024a6.5 6.5 0 0 0 3.515 1.025c4.214 0 6.518-3.492 6.518-6.519v-.302a4.2 4.2 0 0 0 1.141-1.164"></path></symbol>
<symbol viewBox="0 0 15.438 15.438" id="verification"><path fill="#01AB31" d="M7.719 0a7.719 7.719 0 1 0 7.719 7.719A7.727 7.727 0 0 0 7.718 0m3.388 6.358L6.95 10.514a.595.595 0 0 1-.84 0L4.33 8.733a.595.595 0 0 1 .84-.84l1.361 1.361 3.737-3.737a.59.59 0 0 1 .84 0 .594.594 0 0 1 0 .84"></path></symbol>
<symbol viewBox="0 0 117 24" id="versace"><path fill="#fff" fill-rule="evenodd" d="M105.305.862h11.431v1.822a3.3 3.3 0 0 0-1.029-.17h-6.572v8.511h6.392c.46 0 .868-.05 1.209-.136v1.813c-.29-.068-.689-.102-1.183-.102h-6.418v8.8h6.375c.35 0 .767-.05 1.226-.16v1.957h-11.414c.091-.344.137-.7.136-1.055v-20.2c0-.441-.051-.807-.153-1.08m-2.646 5.797-3.303-.025C99.194 4.778 98.13 2.98 95.79 2.65c-5.014-.451-6.427 5.055-6.3 9.082.129 3.88.75 9.848 5.925 9.848 2.17 0 4.256-2.23 4.188-4.112l3.056-.025c-.222 3.881-4.673 6.128-6.793 6.205-7.243.247-10.274-4.58-10.427-11.466-.135-6.238 2.418-11.78 9.576-11.78 6.128.086 7.312 3.712 7.644 6.257M51.146 20.66l2.188-1.83c1.14 1.882 2.076 2.74 4.34 2.74 2.298 0 4.231-1.395 4.231-3.863 0-1.218-.494-2.213-1.473-2.962-.443-.35-1.566-.954-3.337-1.796-2.647-1.268-5.225-2.92-5.225-6.239 0-4.188 3.557-6.035 7.31-6.172 2.222-.085 4.98 1.142 6.095 2.52l-2.221 1.71a4.64 4.64 0 0 0-4.086-2.45c-2.834 0-5.081 3.285-2.732 5.55.595.578 1.813 1.293 3.669 2.144 2.962 1.388 5.49 3.047 5.49 6.716a6.7 6.7 0 0 1-.988 3.532c-1.319 2.18-3.524 3.269-6.605 3.269-3.54 0-4.238-.809-6.656-2.869M19.976.862h11.422v1.822a3.3 3.3 0 0 0-1.029-.17h-6.57v8.511h6.391c.46 0 .869-.05 1.209-.136v1.813c-.29-.068-.69-.102-1.174-.102h-6.427v8.8h6.375c.35 0 .767-.05 1.226-.16v1.957H19.994q.126-.52.127-1.055v-20.2c0-.441-.051-.807-.144-1.08M0 .862h4.154v.205c0 .187.06.434.161.749l5.856 17.627L16.18 1.74c.093-.298.144-.587.144-.877h2.017a5.5 5.5 0 0 0-.451.954l-6.86 20.47c-.069.196-.128.503-.179.911H7.447a6 6 0 0 0-.23-.91L.495 1.976A34 34 0 0 0 .008.862zm44.115 11.645c2.724-.537 4.81-2.622 4.81-5.601 0-3.908-3.27-6.044-6.93-6.044h-6.69c.094.34.146.698.146 1.072v20.19c0 .434-.052.8-.145 1.072h3.983a4 4 0 0 1-.144-1.072v-9.277l1.276.136 6.673 10.213h4.01zm-.689-1.703c-.723.51-1.592.766-2.588.766h-1.702V2.489h1.524q1.953 0 3.039.97c.987.894 1.49 2.102 1.49 3.617q0 2.453-1.763 3.729m41.35 11.465-7.44-20.667a2.7 2.7 0 0 1-.144-.74h-3.218c0 .263-.043.544-.145.825L66.62 22.27a4 4 0 0 1-.45.927h2.076c-.008-.34.034-.655.128-.927l2.135-6.07h8.214l2.111 6.07c.111.33.162.637.162.927h4.308a4.5 4.5 0 0 1-.529-.927m-13.704-7.713 3.472-10.086 3.567 10.086z" clip-rule="evenodd"></path></symbol>
<symbol viewBox="0 0 29 10" id="Visa"><path fill="#1434CB" d="M14.734.675 12.87 9.387h-2.253L12.48.675zm9.482 5.626 1.186-3.272.683 3.272zm2.514 3.086h2.085L26.995.675h-1.923c-.433 0-.797.252-.96.64l-3.38 8.072h2.366l.47-1.3h2.891zm-5.88-2.844c.01-2.3-3.18-2.426-3.158-3.453.006-.313.305-.645.956-.73.323-.042 1.212-.075 2.222.39l.395-1.848a6 6 0 0 0-2.108-.386c-2.227 0-3.795 1.184-3.808 2.88-.014 1.254 1.119 1.954 1.973 2.371.878.427 1.173.7 1.169 1.083-.006.584-.7.842-1.348.852-1.134.018-1.791-.306-2.316-.55l-.408 1.909c.527.242 1.498.452 2.507.463 2.367 0 3.916-1.17 3.924-2.981M11.514.675 7.862 9.387H5.48L3.683 2.435c-.11-.429-.204-.585-.536-.766C2.606 1.376 1.711 1.1.924.93L.978.675h3.834c.489 0 .929.326 1.04.889L6.8 6.605 9.146.675z"></path></symbol>
<symbol viewBox="0 0 65 27" id="zara"><g clip-path="url(#a)"><path fill="#fff" d="M61.272 25.852 51.82.022l-.007-.016h-.186L49.68 5.313l-3.544 9.664-.009-.008c-1.228-1.076-2.96-1.748-5.143-1.998l-.666-.069.66-.084c3.6-.641 6.019-2.897 6.019-5.615 0-3.727-3.532-6.328-8.592-6.328H27.876v.189h3.06V20.32L23.505.023 23.5.006h-.186l-1.947 5.307-7.509 20.473-.046.005a8 8 0 0 1-.946.06H5.278L19.7 1.065l.107-.187H2.17v7.668h.187C2.39 4.81 4.581 1.064 9.424 1.064h5.843L.737 26.038h19.575V18.69h-.187c-.026 3.255-1.886 6.348-5.93 7.046l-.128.022 3.08-8.401h8.627l3.109 8.494h-3.067v.186h12.037v-.186h-3.08V13.039h3.554c3.616 0 5.69 1.604 5.69 4.398v2.272c0 .25.017.617.036.923v.011l-1.91 5.208h-2.495v.186h5.165v-.186h-2.468l1.74-4.742.005.073.048.428.046.282c.29 1.749.964 3.034 2.002 3.82l.15.108c.788.544 1.769.82 2.915.82 1.518 0 2.53-.375 3.365-1.26l-.11-.102c-.77.706-1.415.991-2.225.991-1.38 0-2.101-1.66-2.101-3.298v-3.184a7.1 7.1 0 0 0-.37-2.326l-.034-.098v-.004h6.31l3.11 8.494h-3.067v.186h10.416v-.186zm-44.056-8.68 4.25-11.587 4.24 11.587zm17.559-4.32V1.065h2.712c3.624 0 5.537 2.137 5.537 6.179 0 4.299-1.098 5.61-4.697 5.61zm12.928 4.32-.018-.046a5.8 5.8 0 0 0-1.203-1.822l-.178-.176-.019-.018 3.49-9.525 4.241 11.587z"></path></g><defs><clipPath id="a"><path fill="#fff" d="M.736 0h63.81v26.645H.735z"></path></clipPath></defs></symbol>
</defs>
</svg>
