<?xml version="1.0" encoding="UTF-8"?>
<!-- This file is generated by npm run build:icons -->
<svg xmlns="http://www.w3.org/2000/svg" xmlns:xlink="http://www.w3.org/1999/xlink" width="0" height="0">
<defs>
<symbol viewBox="0 0 24 10" fill="none" id="ApplePay">
<path d="M4.65258 1.49887C4.91915 1.16544 5.10005 0.717746 5.05234 0.260254C4.66211 0.279658 4.18591 0.517702 3.91022 0.851392C3.66267 1.13715 3.44357 1.60359 3.50069 2.0419C3.93874 2.0799 4.37639 1.82294 4.65258 1.49887Z" fill="#000008"></path>
<path d="M5.04738 2.12749C4.41122 2.0896 3.87033 2.48854 3.56654 2.48854C3.26257 2.48854 2.79736 2.14658 2.29419 2.1558C1.63929 2.16542 1.03161 2.53571 0.699278 3.12464C0.015721 4.30279 0.518888 6.0504 1.18361 7.00994C1.50642 7.48466 1.89545 8.00735 2.40806 7.98858C2.8924 7.96957 3.08223 7.67496 3.67096 7.67496C4.25926 7.67496 4.43026 7.98858 4.94296 7.97908C5.47463 7.96957 5.80703 7.50413 6.12983 7.02895C6.50015 6.4878 6.65174 5.96528 6.66128 5.93659C6.65174 5.92709 5.63605 5.53745 5.62663 4.36908C5.61704 3.3908 6.42406 2.92547 6.46204 2.89662C6.00631 2.22259 5.29424 2.14658 5.04738 2.12749Z" fill="#000008"></path>
<path d="M10.5865 0.803538C11.9692 0.803538 12.932 1.75663 12.932 3.14426C12.932 4.53685 11.9494 5.4949 10.5519 5.4949H9.02096V7.92944H7.9149V0.803537L10.5865 0.803538ZM9.02096 4.56647H10.2901C11.2531 4.56647 11.8012 4.04802 11.8012 3.14922C11.8012 2.25051 11.2531 1.73691 10.2951 1.73691H9.02096V4.56647Z" fill="#000008"></path>
<path d="M13.221 6.45293C13.221 5.54422 13.9173 4.98624 15.1519 4.91708L16.574 4.83317V4.4332C16.574 3.8554 16.1839 3.50973 15.5322 3.50973C14.9148 3.50973 14.5296 3.80597 14.4358 4.27023H13.4284C13.4877 3.3319 14.2876 2.64056 15.5716 2.64056C16.8308 2.64056 17.6357 3.30723 17.6357 4.34919V7.92943H16.6135V7.07511H16.5889C16.2877 7.65291 15.6309 8.0183 14.9494 8.0183C13.9321 8.0183 13.221 7.38621 13.221 6.45293ZM16.574 5.98381V5.57394L15.295 5.65291C14.658 5.69739 14.2975 5.97886 14.2975 6.42331C14.2975 6.87756 14.6728 7.17389 15.2457 7.17389C15.9913 7.17389 16.574 6.66029 16.574 5.98381Z" fill="#000008"></path>
<path d="M18.6008 9.84057V8.97635C18.6797 8.99607 18.8574 8.99607 18.9464 8.99607C19.4402 8.99607 19.7069 8.7887 19.8698 8.25538C19.8698 8.24548 19.9637 7.93934 19.9637 7.93438L18.0872 2.73438H19.2426L20.5563 6.96157H20.576L21.8897 2.73438H23.0156L21.0697 8.20099C20.6255 9.46032 20.1119 9.86524 19.0354 9.86524C18.9464 9.86524 18.6797 9.85533 18.6008 9.84057Z" fill="#000008"></path>
</symbol>
<symbol viewBox="0 0 135 23" fill="none" id="calvinKlein">
<g id="Group">
<path id="Vector" fill-rule="evenodd" clip-rule="evenodd" d="M11.0116 20.6763C6.29133 20.6763 2.26229 16.395 2.26229 11.7252C2.26229 7.07275 6.20701 2.70639 10.9777 2.70639C14.1137 2.70639 16.3719 4.22359 18.2098 6.60065H20.5191C19.8279 5.35302 19.0862 4.20701 17.9568 3.31327C16.018 1.74562 13.5061 0.818726 11.0116 0.818726C5.02712 0.818726 0.155518 5.75808 0.155518 11.7087C0.155518 17.6758 5.09488 22.5647 11.0455 22.5647C13.473 22.5647 15.85 21.6717 17.755 20.1711C18.9522 19.2103 19.7947 17.9627 20.6042 16.6812H18.2948C16.4735 19.0582 14.1476 20.6763 11.0116 20.6763ZM34.9494 9.29773C33.5 7.42664 31.5272 6.24675 29.0832 6.24675C24.7002 6.24675 21.0928 9.80442 21.0928 14.1874C21.0928 18.5696 24.7175 22.1604 29.0832 22.1604C31.6289 22.1604 33.3983 21.098 34.9494 19.1426V21.8058H36.8544V6.61722H34.9494V9.29773ZM28.9823 20.4068C25.6271 20.4068 22.9805 17.4906 22.9805 14.2039C22.9805 10.9331 25.6105 8.00036 28.9823 8.00036C32.3367 8.00036 34.9494 10.9338 34.9494 14.2039C34.9494 17.4906 32.3194 20.4068 28.9823 20.4068ZM39.1637 21.8058H41.2041V1.25623H39.1637V21.8058ZM48.9076 19.3948L43.7491 6.61722H41.726L47.913 21.8058H49.9693L56.1397 6.61722H54.1504L48.9076 19.3948ZM56.9823 21.8058H59.022V6.61722H56.9823V21.8058ZM56.9823 4.66181H59.022V1.25623H56.9823V4.66181ZM67.8052 6.24603C65.8829 6.24603 64.5178 7.25798 63.2536 8.60652V6.61722H61.3652V21.8058H63.3711V12.5505C63.3545 10.1064 65.3769 7.99964 67.8383 7.99964C70.9225 7.99964 72.4735 10.6801 72.4735 13.445V21.8065H74.3612V13.445C74.3619 9.50026 72.0533 6.24603 67.8052 6.24603ZM93.2934 1.25623L84.0215 13.0399V1.25623H82.0157V21.8058H84.0215V16.1586L86.6516 12.8885L93.3438 21.8058H95.8902L87.9324 11.2697L95.8902 1.25623H93.2934ZM96.6312 21.8058H98.6212V1.25623H96.6312V21.8058ZM115.091 10.4437C113.708 7.86414 110.943 6.24603 108.026 6.24603C103.678 6.24603 100.002 9.87073 100.002 14.2198C100.002 18.602 103.711 22.1597 108.062 22.1597C110.134 22.1597 112.175 21.3337 113.674 19.9008C114.585 19.0409 115.124 17.962 115.612 16.8325H113.472C112.393 18.94 110.488 20.4061 108.026 20.4061C106.526 20.4061 105.06 19.7992 103.948 18.7706C102.8 17.7263 102.295 16.444 102.075 14.9276H116.085C116.086 13.3433 115.866 11.8261 115.091 10.4437ZM102.144 13.1747C102.752 10.3262 104.993 7.99964 108.062 7.99964C110.641 7.99964 113.405 9.58459 114.012 13.1747H102.144ZM117.569 21.8058H119.574V6.61722H117.569V21.8058ZM117.569 4.72956H119.574V1.25623H117.569V4.72956ZM128.392 6.24603C126.435 6.24603 125.07 7.25798 123.789 8.60652V6.61722H121.867V21.8058H123.89V12.5505C123.874 10.0898 125.947 7.99964 128.425 7.99964C131.494 7.99964 133.112 10.6801 133.112 13.445V21.8065H135V13.445C135 9.50026 132.656 6.24603 128.392 6.24603Z" fill="white"></path>
</g>
</symbol>
<symbol viewBox="0 0 24 24" fill="none" id="cart">
<path d="M9.375 20.25C9.375 20.6208 9.26503 20.9834 9.059 21.2917C8.85298 21.6 8.56014 21.8404 8.21753 21.9823C7.87492 22.1242 7.49792 22.1613 7.1342 22.089C6.77049 22.0166 6.4364 21.838 6.17417 21.5758C5.91195 21.3136 5.73337 20.9795 5.66103 20.6158C5.58868 20.2521 5.62581 19.8751 5.76773 19.5325C5.90964 19.1899 6.14996 18.897 6.45831 18.691C6.76665 18.485 7.12916 18.375 7.5 18.375C7.99728 18.375 8.47419 18.5725 8.82582 18.9242C9.17745 19.2758 9.375 19.7527 9.375 20.25ZM17.25 18.375C16.8792 18.375 16.5166 18.485 16.2083 18.691C15.9 18.897 15.6596 19.1899 15.5177 19.5325C15.3758 19.8751 15.3387 20.2521 15.411 20.6158C15.4834 20.9795 15.662 21.3136 15.9242 21.5758C16.1864 21.838 16.5205 22.0166 16.8842 22.089C17.2479 22.1613 17.6249 22.1242 17.9675 21.9823C18.3101 21.8404 18.603 21.6 18.809 21.2917C19.015 20.9834 19.125 20.6208 19.125 20.25C19.125 19.7527 18.9275 19.2758 18.5758 18.9242C18.2242 18.5725 17.7473 18.375 17.25 18.375ZM22.0753 7.08094L19.5169 15.3966C19.3535 15.9343 19.0211 16.4051 18.569 16.739C18.1169 17.0729 17.5692 17.2521 17.0072 17.25H7.77469C7.2046 17.2482 6.65046 17.0616 6.1953 16.7183C5.74015 16.3751 5.40848 15.8936 5.25 15.3459L2.04469 4.125H1.125C0.826631 4.125 0.540483 4.00647 0.329505 3.7955C0.118526 3.58452 0 3.29837 0 3C0 2.70163 0.118526 2.41548 0.329505 2.2045C0.540483 1.99353 0.826631 1.875 1.125 1.875H2.32687C2.73407 1.87626 3.12988 2.00951 3.45493 2.25478C3.77998 2.50004 4.01674 2.84409 4.12969 3.23531L4.81312 5.625H21C21.1761 5.62499 21.3497 5.6663 21.5069 5.74561C21.664 5.82492 21.8004 5.94001 21.905 6.08164C22.0096 6.22326 22.0795 6.38746 22.1091 6.56102C22.1387 6.73458 22.1271 6.91266 22.0753 7.08094ZM19.4766 7.875H5.45531L7.41375 14.7281C7.43617 14.8065 7.48354 14.8755 7.54867 14.9245C7.6138 14.9736 7.69315 15.0001 7.77469 15H17.0072C17.0875 15.0002 17.1656 14.9746 17.2303 14.927C17.2949 14.8794 17.3426 14.8123 17.3662 14.7356L19.4766 7.875Z" fill="black"></path>
</symbol>
<symbol viewBox="0 0 26 11" fill="none" id="GPay">
<path d="M12.0816 7.95592H11.1829V0.962839H13.5654C14.1692 0.962839 14.6841 1.16411 15.1054 1.56666C15.536 1.96921 15.7513 2.46069 15.7513 3.04111C15.7513 3.63556 15.536 4.12705 15.1054 4.52491C14.6888 4.92278 14.1739 5.11937 13.5654 5.11937H12.0816V7.95592ZM12.0816 1.8241V4.26279H13.5841C13.9399 4.26279 14.2394 4.14109 14.4735 3.90237C14.7122 3.66365 14.8339 3.37344 14.8339 3.04579C14.8339 2.72281 14.7122 2.43729 14.4735 2.19857C14.2394 1.95048 13.9445 1.82878 13.5841 1.82878H12.0816V1.8241Z" fill="#3C4043"></path>
<path d="M18.101 3.01302C18.7656 3.01302 19.2899 3.19089 19.6737 3.54663C20.0575 3.90237 20.2494 4.38917 20.2494 5.00703V7.95592H19.3928V7.29125H19.3554C18.9856 7.8389 18.4895 8.11039 17.8716 8.11039C17.3427 8.11039 16.9027 7.95592 16.5469 7.64231C16.1912 7.3287 16.0133 6.94019 16.0133 6.47212C16.0133 5.97595 16.2006 5.58277 16.575 5.29256C16.9495 4.99767 17.4503 4.85257 18.0729 4.85257C18.6065 4.85257 19.0465 4.95086 19.3882 5.14746V4.9415C19.3882 4.62789 19.2665 4.36576 19.0184 4.14577C18.7703 3.92577 18.4801 3.81811 18.1478 3.81811C17.6469 3.81811 17.2491 4.02875 16.9588 4.4547L16.1678 3.95854C16.6031 3.32663 17.2491 3.01302 18.101 3.01302ZM16.9401 6.48616C16.9401 6.7202 17.0384 6.91679 17.2397 7.07125C17.4363 7.22572 17.6703 7.30529 17.9371 7.30529C18.3163 7.30529 18.6533 7.16487 18.9482 6.88402C19.2431 6.60318 19.3928 6.27552 19.3928 5.89638C19.112 5.67638 18.7235 5.56404 18.2227 5.56404C17.8576 5.56404 17.5533 5.65298 17.3099 5.82617C17.0618 6.00872 16.9401 6.22871 16.9401 6.48616Z" fill="#3C4043"></path>
<path d="M25.1362 3.16753L22.1405 10.0576H21.2137L22.3277 7.64704L20.3524 3.16753H21.3307L22.7537 6.60322H22.7724L24.1579 3.16753H25.1362Z" fill="#3C4043"></path>
<path d="M8.50684 4.553C8.50684 4.25998 8.48063 3.9796 8.43195 3.70999H4.66488V5.25465L6.83441 5.25512C6.74641 5.76907 6.46322 6.20719 6.02932 6.49927V7.50142H7.32074C8.07481 6.80352 8.50684 5.77187 8.50684 4.553Z" fill="#4285F4"></path>
<path d="M6.02978 6.49931C5.67029 6.74178 5.20737 6.88361 4.6658 6.88361C3.61965 6.88361 2.73218 6.17868 2.41436 5.22848H1.08222V6.262C1.7422 7.57168 3.09869 8.47039 4.6658 8.47039C5.74893 8.47039 6.65887 8.11418 7.3212 7.501L6.02978 6.49931Z" fill="#34A853"></path>
<path d="M2.28888 4.46171C2.28888 4.19491 2.33334 3.937 2.41432 3.69454V2.66102H1.08218C0.80929 3.20259 0.655762 3.8139 0.655762 4.46171C0.655762 5.10953 0.809758 5.72084 1.08218 6.26241L2.41432 5.2289C2.33334 4.98643 2.28888 4.72852 2.28888 4.46171Z" fill="#FABB05"></path>
<path d="M4.6658 2.03942C5.25698 2.03942 5.78638 2.24303 6.20437 2.6409L7.34881 1.49739C6.65372 0.850035 5.74753 0.452637 4.6658 0.452637C3.09915 0.452637 1.74216 1.35134 1.08218 2.66102L2.41432 3.69454C2.73214 2.74434 3.61965 2.03942 4.6658 2.03942Z" fill="#E94235"></path>
</symbol>
<symbol viewBox="0 0 110 26" fill="none" id="gucci">
  <g clip-path="url(#clip0_35_800)">
    <path d="M99.6327 8.62006L99.4283 8.6847C98.6334 7.04145 97.4978 5.73335 96.0216 4.76038C94.5681 3.7874 92.7398 3.30091 90.5368 3.30091C89.3104 3.30091 88.1408 3.54955 87.0279 4.04682C85.9151 4.52253 84.9385 5.20361 84.0982 6.09007C83.2806 6.95493 82.6219 8.00358 82.1223 9.23602C81.6227 10.4685 81.3728 11.8306 81.3728 13.3225C81.3728 14.8144 81.6227 16.1765 82.1223 17.409C82.6219 18.6414 83.2806 19.7008 84.0982 20.5873C84.9385 21.4522 85.9151 22.1225 87.0279 22.5982C88.1408 23.0738 89.3104 23.3116 90.5368 23.3116C92.7171 23.3116 94.4886 22.9873 95.8513 22.3387C97.2367 21.6684 98.4063 20.6522 99.3602 19.2901L99.5646 19.3547L99.4967 21.4304C98.9743 21.9493 98.3725 22.4142 97.6912 22.8249C97.0098 23.2141 96.2717 23.5493 95.4769 23.8304C94.7046 24.0898 93.8984 24.2844 93.0581 24.4141C92.2178 24.5656 91.3774 24.6414 90.5371 24.6414C88.7884 24.6414 87.1191 24.3711 85.5293 23.8305C83.9395 23.29 82.5428 22.5332 81.339 21.5603C80.1354 20.5657 79.1815 19.3765 78.4774 17.9927C77.7734 16.5873 77.4213 15.0306 77.4213 13.3225C77.4213 11.6144 77.7734 10.0684 78.4774 8.68467C79.1815 7.27924 80.1354 6.07924 81.339 5.08468C82.5427 4.09007 83.9395 3.33331 85.5293 2.8144C87.1191 2.27385 88.7884 2.00357 90.5371 2.00357C91.3774 2.00357 92.2178 2.06843 93.0581 2.19816C93.8984 2.32789 94.7046 2.5333 95.4768 2.8144C96.2717 3.07386 97.0098 3.409 97.6912 3.81982C98.3725 4.20901 98.9743 4.66306 99.4967 5.18197L99.6327 8.62006ZM24.5625 14.8147C24.3128 14.9227 24.0744 15.0633 23.8471 15.2365C23.6199 15.4093 23.5063 15.6472 23.5063 15.95V19.9392C22.4161 21.4311 21.0194 22.5878 19.316 23.4095C17.6127 24.2311 15.7276 24.6419 13.6609 24.6419C11.9121 24.6419 10.2429 24.3716 8.65307 23.8311C7.06329 23.2905 5.66655 22.5338 4.46284 21.5608C3.25915 20.5662 2.30527 19.3771 1.6012 17.9933C0.897178 16.5879 0.545166 15.0311 0.545166 13.323C0.545166 11.6149 0.897178 10.069 1.6012 8.6852C2.30527 7.27977 3.25915 6.07978 4.46284 5.08521C5.66655 4.0906 7.06329 3.33385 8.65307 2.81496C10.2429 2.27439 11.9121 2.0041 13.6609 2.0041C14.5012 2.0041 15.3415 2.06896 16.1819 2.19869C17.0222 2.32842 17.8284 2.53383 18.6006 2.81493C19.3955 3.07439 20.1336 3.40953 20.815 3.82036C21.4963 4.20954 22.0982 4.66359 22.6205 5.18251L22.757 8.62031L22.5526 8.68495C21.7577 7.04169 20.6222 5.73357 19.1459 4.76061C17.6924 3.78762 15.8641 3.30113 13.6611 3.30113C12.4347 3.30113 11.2651 3.54978 10.1523 4.04707C9.03944 4.52276 8.06284 5.20384 7.22251 6.0903C6.40489 6.95517 5.74627 8.00383 5.24667 9.23627C4.74698 10.4687 4.49714 11.8309 4.49714 13.3227C4.49714 14.793 4.73562 16.1443 5.21257 17.3768C5.71224 18.6092 6.37087 19.6687 7.18847 20.5552C8.02876 21.42 9.00534 22.1011 10.1182 22.5984C11.2311 23.074 12.4121 23.3119 13.6611 23.3119C16.0231 23.3119 18.0445 22.8795 19.7251 22.0146V15.9498C19.7251 15.6472 19.6002 15.4093 19.3506 15.2362C19.1233 15.0634 18.8962 14.9228 18.6692 14.8144L18.7003 14.6524C18.8137 14.6722 19.0181 14.6938 19.3135 14.7171C19.6089 14.7369 19.9155 14.7584 20.2333 14.7817H23.1633C23.4358 14.7619 23.697 14.7404 23.9468 14.7171C24.1965 14.6973 24.3895 14.6758 24.5258 14.6524L24.5625 14.8147ZM49.2376 2.68495C49.0103 2.79293 48.7832 2.93353 48.5562 3.10676C48.329 3.27961 48.2042 3.60393 48.1818 4.07973C48.161 4.59864 48.1383 5.25811 48.1138 6.05812C48.1138 6.83651 48.1034 7.72298 48.0827 8.71752C48.0827 9.71215 48.0723 10.7932 48.0515 11.9608V15.5932C48.0307 16.9986 47.849 18.1986 47.5062 19.1932C47.1656 20.1878 46.7113 21.0202 46.1436 21.6905C45.5985 22.3608 44.9853 22.8905 44.304 23.2797C43.6453 23.6689 42.9867 23.9608 42.3281 24.1554C41.6921 24.3717 41.0903 24.5014 40.5226 24.5445C39.9548 24.6094 39.5119 24.6418 39.1939 24.6418C37.8994 24.6418 36.6503 24.4797 35.4465 24.1554C34.2428 23.8528 33.1868 23.3555 32.2783 22.6635C31.3699 21.9716 30.6431 21.0743 30.0981 19.9716C29.553 18.8689 29.2805 17.5284 29.2805 15.95V12.2851V8.91212C29.2805 7.87427 29.2701 6.94455 29.2493 6.12295C29.2493 5.2797 29.2389 4.59861 29.2181 4.0797C29.1974 3.60401 29.0725 3.27969 28.8436 3.10674C28.6164 2.9339 28.3893 2.79329 28.1623 2.68492L28.1934 2.52296C28.3069 2.54273 28.4886 2.56428 28.7387 2.5876C29.0113 2.60737 29.2838 2.62892 29.5563 2.65224C29.8517 2.65224 30.1356 2.66213 30.408 2.6819H31.6344C31.907 2.66213 32.1909 2.65224 32.4861 2.65224C32.7815 2.63246 33.054 2.61092 33.3037 2.5876C33.5762 2.56782 33.7692 2.54628 33.8826 2.52296L33.9138 2.68492C33.6641 2.7929 33.4256 2.9335 33.1984 3.10674C32.994 3.27958 32.8804 3.6039 32.8575 4.0797C32.8367 4.59861 32.8141 5.2797 32.7896 6.12295V15.9499C32.7896 18.3067 33.3687 20.0472 34.527 21.1715C35.6853 22.2959 37.4 22.858 39.6711 22.858C40.3297 22.858 41.0792 22.7823 41.9195 22.6308C42.7599 22.458 43.5434 22.112 44.2701 21.593C45.0196 21.0741 45.6442 20.3389 46.1438 19.3876C46.6662 18.4362 46.9274 17.1714 46.9274 15.593C46.9274 13.8849 46.917 12.4255 46.8962 11.2147C46.8962 9.98224 46.8858 8.93359 46.8651 8.06871C46.8651 7.18224 46.8547 6.42548 46.8339 5.79844C46.8131 5.17143 46.7905 4.59847 46.7659 4.07953C46.7452 3.60384 46.6203 3.27952 46.3914 3.10657C46.1642 2.93373 45.9371 2.79311 45.7101 2.68473L45.7413 2.52279C45.991 2.56588 46.2748 2.60919 46.5929 2.65271C46.9107 2.67249 47.206 2.68238 47.4787 2.68238C47.7284 2.68238 48.0122 2.67249 48.3303 2.65271C48.671 2.60962 48.9662 2.56631 49.2161 2.52279L49.2376 2.68495ZM73.9576 8.62006L73.7532 8.6847C72.9583 7.04145 71.8228 5.73335 70.3466 4.76038C68.893 3.7874 67.0648 3.30091 64.8618 3.30091C63.6354 3.30091 62.4657 3.54955 61.3529 4.04682C60.24 4.52253 59.2634 5.20361 58.4231 6.09007C57.6055 6.95493 56.9469 8.00358 56.4472 9.23602C55.9476 10.4685 55.6978 11.8306 55.6978 13.3225C55.6978 14.8144 55.9476 16.1765 56.4473 17.409C56.947 18.6414 57.6056 19.7008 58.4232 20.5873C59.2635 21.4522 60.24 22.1225 61.3529 22.5982C62.4658 23.0738 63.6354 23.3116 64.8618 23.3116C67.0421 23.3116 68.8136 22.9873 70.1763 22.3387C71.5616 21.6684 72.7312 20.6522 73.6851 19.2901L73.8895 19.3547L73.8216 21.4304C73.2992 21.9493 72.6973 22.4141 72.016 22.8249C71.3347 23.2141 70.5966 23.5492 69.8017 23.8303C69.0295 24.0898 68.2232 24.2844 67.3829 24.4141C66.5426 24.5656 65.7023 24.6413 64.862 24.6413C63.1132 24.6413 61.4439 24.3711 59.8541 23.8305C58.2643 23.29 56.8676 22.5332 55.6639 21.5602C54.4602 20.5657 53.5063 19.3765 52.8023 17.9927C52.0982 16.5873 51.7462 15.0306 51.7462 13.3224C51.7462 11.6143 52.0982 10.0684 52.8023 8.68464C53.5063 7.27921 54.4602 6.07922 55.6639 5.08465C56.8676 4.09004 58.2643 3.33329 59.8541 2.81437C61.4439 2.27382 63.1132 2.00354 64.862 2.00354C65.7023 2.00354 66.5426 2.0684 67.3829 2.19813C68.2233 2.32786 69.0295 2.53327 69.8017 2.81437C70.5966 3.07383 71.3347 3.40897 72.016 3.8198C72.6973 4.20898 73.2992 4.66303 73.8216 5.18195L73.9576 8.62006ZM109.901 24.0903C109.787 24.0705 109.594 24.049 109.322 24.0257C109.072 24.0257 108.799 24.0158 108.504 23.996C108.209 23.996 107.925 23.9861 107.652 23.9663H105.609C105.336 23.9861 105.063 24.0076 104.791 24.031C104.541 24.0507 104.348 24.0723 104.212 24.0956L104.181 23.9656C104.408 23.8577 104.635 23.7171 104.862 23.5438C105.089 23.371 105.214 23.0467 105.237 22.5709C105.257 22.0519 105.268 21.5114 105.268 20.9493C105.289 20.3871 105.299 19.7492 105.299 19.0357V16.6033V13.3276V10.052V7.58713C105.299 6.87362 105.289 6.24659 105.268 5.70604C105.268 5.14388 105.257 4.60334 105.237 4.08443C105.216 3.60874 105.091 3.28442 104.862 3.11147C104.635 2.91687 104.408 2.76558 104.181 2.65758L104.212 2.52769C104.348 2.57078 104.541 2.60321 104.791 2.62498C105.063 2.62498 105.336 2.63487 105.609 2.65465C105.904 2.67442 106.188 2.68431 106.46 2.68431H107.652C107.925 2.66453 108.209 2.65465 108.504 2.65465C108.799 2.63487 109.072 2.61332 109.322 2.59C109.594 2.57023 109.787 2.54868 109.901 2.52536L109.932 2.65532C109.682 2.76329 109.444 2.91458 109.216 3.10917C109.012 3.28201 108.898 3.60633 108.875 4.08213C108.855 4.60105 108.832 5.14158 108.808 5.70374V20.947C108.828 21.5091 108.851 22.0497 108.875 22.5686C108.896 23.0443 109.01 23.3686 109.216 23.5415C109.444 23.7144 109.682 23.855 109.932 23.9633L109.901 24.0903Z" fill="white"></path>
  </g>
  <defs>
    <clipPath id="clip0_35_800">
      <rect width="109.387" height="25.2431" fill="white" transform="translate(0.545166 0.701172)"></rect>
    </clipPath>
  </defs>
</symbol>
<symbol viewBox="0 0 8 13" fill="none" id="logo-fb-simple">
<path d="M2.70873 12.8875V7.334H0.839844V5.16968H2.70873V3.57355C2.70873 1.72126 3.84005 0.712646 5.49242 0.712646C6.28392 0.712646 6.96418 0.771576 7.16243 0.797915V2.73367L6.01642 2.73419C5.11776 2.73419 4.94376 3.16122 4.94376 3.78785V5.16968H7.08697L6.80791 7.334H4.94376V12.8875H2.70873Z" fill="white"></path>
</symbol>
<symbol viewBox="0 0 14 14" fill="none" id="logo-github">
<path fill-rule="evenodd" clip-rule="evenodd" d="M6.60685 0.810303C3.01591 0.810303 0.126953 3.69926 0.126953 7.2902C0.126953 10.1522 1.98992 12.5821 4.55488 13.4461C4.87888 13.5001 4.98688 13.3111 4.98688 13.1221C4.98688 12.9601 4.98688 12.5551 4.98688 12.0151C3.1779 12.4201 2.79991 11.1511 2.79991 11.1511C2.50291 10.3951 2.07092 10.2062 2.07092 10.2062C1.47693 9.80116 2.12492 9.80116 2.12492 9.80116C2.77291 9.85516 3.1239 10.4761 3.1239 10.4761C3.6909 11.4751 4.63588 11.1781 5.01387 11.0161C5.06787 10.5841 5.22987 10.3142 5.41887 10.1522C3.98789 9.99016 2.47592 9.42316 2.47592 6.9392C2.47592 6.23722 2.71891 5.64322 3.1509 5.21123C3.09691 5.04923 2.85391 4.40124 3.2049 3.48326C3.2049 3.48326 3.74489 3.32126 4.98688 4.15825C5.49987 4.02325 6.06686 3.94225 6.60685 3.94225C7.14684 3.94225 7.71383 4.02325 8.22682 4.15825C9.4688 3.32126 10.0088 3.48326 10.0088 3.48326C10.3598 4.37425 10.1438 5.02223 10.0628 5.21123C10.4678 5.67022 10.7378 6.23722 10.7378 6.9392C10.7378 9.42316 9.22581 9.96316 7.76783 10.1252C8.01083 10.3141 8.19982 10.7191 8.19982 11.3131C8.19982 12.1771 8.19982 12.8791 8.19982 13.0951C8.19982 13.2571 8.30782 13.4731 8.65882 13.4191C11.2238 12.5821 13.0867 10.1522 13.0867 7.2902C13.0867 3.69926 10.1978 0.810303 6.60685 0.810303Z" fill="black"></path>
</symbol>
<symbol viewBox="0 0 14 15" fill="none" id="logo-instagram">
<path d="M7.00076 2.03095C8.80947 2.03095 9.02366 2.03772 9.73818 2.0703C10.1678 2.07556 10.5933 2.15444 10.9962 2.30353C11.2884 2.41622 11.5538 2.58885 11.7753 2.8103C11.9967 3.03176 12.1694 3.29713 12.282 3.58933C12.4311 3.99227 12.51 4.4178 12.5153 4.8474C12.5475 5.56191 12.5546 5.77611 12.5546 7.58482C12.5546 9.39353 12.5479 9.60772 12.5153 10.3222C12.51 10.7518 12.4311 11.1774 12.282 11.5803C12.1694 11.8725 11.9967 12.1379 11.7753 12.3593C11.5538 12.5808 11.2884 12.7534 10.9962 12.8661C10.5933 13.0152 10.1678 13.0941 9.73818 13.0993C9.02398 13.1316 8.80979 13.1387 7.00076 13.1387C5.19172 13.1387 4.97753 13.1319 4.26334 13.0993C3.83373 13.0941 3.40821 13.0152 3.00527 12.8661C2.71307 12.7534 2.44769 12.5808 2.22624 12.3593C2.00479 12.1379 1.83216 11.8725 1.71947 11.5803C1.57038 11.1774 1.4915 10.7518 1.48624 10.3222C1.45398 9.60772 1.44689 9.39353 1.44689 7.58482C1.44689 5.77611 1.45366 5.56191 1.48624 4.8474C1.4915 4.4178 1.57038 3.99227 1.71947 3.58933C1.83216 3.29713 2.00479 3.03176 2.22624 2.8103C2.44769 2.58885 2.71307 2.41622 3.00527 2.30353C3.40821 2.15444 3.83373 2.07556 4.26334 2.0703C4.97785 2.03804 5.19205 2.03095 7.00076 2.03095ZM7.00076 0.810303C5.16205 0.810303 4.93043 0.818045 4.20785 0.850948C3.64561 0.862131 3.08934 0.968587 2.56269 1.16579C2.11092 1.336 1.70172 1.60274 1.36366 1.9474C1.01869 2.28558 0.751722 2.69501 0.581401 3.14708C0.384201 3.67372 0.277746 4.23 0.266563 4.79224C0.234304 5.51417 0.226562 5.74579 0.226562 7.5845C0.226562 9.4232 0.234304 9.65482 0.267208 10.3774C0.278391 10.9396 0.384847 11.4959 0.582046 12.0226C0.752178 12.4746 1.01892 12.884 1.36366 13.2222C1.70191 13.567 2.11133 13.8337 2.56334 14.0038C3.08998 14.201 3.64626 14.3075 4.2085 14.3187C4.93108 14.3509 5.16172 14.3593 7.0014 14.3593C8.84108 14.3593 9.07172 14.3516 9.7943 14.3187C10.3565 14.3075 10.9128 14.201 11.4395 14.0038C11.8893 13.8295 12.2978 13.5631 12.6389 13.2219C12.98 12.8806 13.246 12.4719 13.4201 12.0219C13.6173 11.4953 13.7238 10.939 13.735 10.3768C13.7672 9.65482 13.775 9.4232 13.775 7.5845C13.775 5.74579 13.7672 5.51417 13.7343 4.79159C13.7231 4.22935 13.6167 3.67308 13.4195 3.14643C13.2493 2.69442 12.9826 2.285 12.6379 1.94675C12.2996 1.60202 11.8902 1.33527 11.4382 1.16514C10.9115 0.967942 10.3553 0.861486 9.79301 0.850303C9.07108 0.818045 8.83947 0.810303 7.00076 0.810303Z" fill="black"></path>
<path d="M7.00215 4.10718C6.31413 4.10718 5.64155 4.3112 5.06948 4.69345C4.49741 5.07569 4.05154 5.61899 3.78824 6.25464C3.52494 6.89029 3.45605 7.58975 3.59028 8.26455C3.72451 8.93935 4.05582 9.5592 4.54233 10.0457C5.02884 10.5322 5.64868 10.8635 6.32349 10.9978C6.99829 11.132 7.69774 11.0631 8.33339 10.7998C8.96904 10.5365 9.51234 10.0906 9.89459 9.51855C10.2768 8.94648 10.4809 8.27391 10.4809 7.58589C10.4809 6.66328 10.1144 5.77845 9.46197 5.12607C8.80958 4.47368 7.92476 4.10718 7.00215 4.10718ZM7.00215 9.84395C6.55555 9.84395 6.11897 9.71152 5.74764 9.4634C5.3763 9.21528 5.08688 8.86262 4.91597 8.45001C4.74506 8.0374 4.70034 7.58338 4.78747 7.14536C4.8746 6.70734 5.08966 6.30499 5.40546 5.98919C5.72125 5.6734 6.1236 5.45834 6.56162 5.37121C6.99964 5.28408 7.45367 5.3288 7.86627 5.49971C8.27888 5.67062 8.63154 5.96004 8.87966 6.33137C9.12778 6.70271 9.26021 7.13928 9.26021 7.58589C9.26021 8.18476 9.02231 8.75911 8.59884 9.18258C8.17537 9.60605 7.60102 9.84395 7.00215 9.84395Z" fill="black"></path>
<path d="M10.6176 4.78181C11.0665 4.78181 11.4305 4.41786 11.4305 3.96891C11.4305 3.51995 11.0665 3.15601 10.6176 3.15601C10.1686 3.15601 9.80469 3.51995 9.80469 3.96891C9.80469 4.41786 10.1686 4.78181 10.6176 4.78181Z" fill="black"></path>
</symbol>
<symbol viewBox="0 0 12 10" fill="none" id="logo-twitter">
<path d="M11.2071 1.56684C10.7881 1.75308 10.3458 1.86947 9.88023 1.93931C10.3458 1.65996 10.7183 1.21766 10.8812 0.68224C10.4389 0.938309 9.95006 1.12454 9.41465 1.24094C8.99562 0.798635 8.39037 0.519287 7.73856 0.519287C6.48149 0.519287 5.45721 1.54356 5.45721 2.80063C5.45721 2.98686 5.48049 3.14982 5.52705 3.31277C3.64145 3.21965 1.94208 2.31177 0.801411 0.91503C0.615178 1.26422 0.498783 1.63668 0.498783 2.0557C0.498783 2.84719 0.894527 3.54556 1.52306 3.96458C1.1506 3.9413 0.801411 3.84819 0.475504 3.68523V3.70851C0.475504 4.8259 1.26699 5.75707 2.31455 5.96658C2.12831 6.01313 1.9188 6.03641 1.70929 6.03641C1.56962 6.03641 1.40666 6.01313 1.26699 5.98986C1.56962 6.89774 2.40766 7.57283 3.40866 7.57283C2.61717 8.17808 1.63945 8.55055 0.56862 8.55055C0.382388 8.55055 0.196156 8.55055 0.0332031 8.52727C1.05748 9.17908 2.24471 9.55155 3.54833 9.55155C7.76184 9.55155 10.0665 6.05969 10.0665 3.03342C10.0665 2.9403 10.0665 2.82391 10.0665 2.73079C10.5088 2.42817 10.9045 2.03242 11.2071 1.56684Z" fill="black"></path>
</symbol>
<symbol viewBox="0 0 125 20" fill="none" id="logo">
<path d="M9.135 19.588C3.045 19.567 0.168 17.677 0.315 13.099H5.544C5.607 14.296 6.615 15.031 9.135 15.052C11.361 15.073 12.39 14.443 12.39 13.624C12.39 13.057 12.075 12.469 10.353 12.217L8.085 11.86C4.746 11.314 0.735 10.915 0.735 6.4C0.735 2.914 3.57 0.772 9.177 0.772C14.238 0.772 17.766 2.179 17.661 7.219H12.474C12.264 6.043 11.277 5.308 9.051 5.308C7.119 5.308 6.321 5.896 6.321 6.694C6.321 7.198 6.636 7.807 7.98 8.017L9.849 8.332C13.356 8.92 18.165 9.025 18.165 13.855C18.165 17.698 15.183 19.609 9.135 19.588ZM31.9289 1.36H37.7459V19H31.9289V12.616H25.0829V19H19.2659V1.36H25.0829V7.744H31.9289V1.36ZM48.9051 19.588C42.8361 19.588 38.9091 15.829 38.9091 10.18C38.9091 4.531 42.8361 0.772 48.9051 0.772C54.9741 0.772 58.9011 4.531 58.9011 10.18C58.9011 15.829 54.9741 19.588 48.9051 19.588ZM48.9051 14.569C51.2151 14.569 53.1261 12.973 53.1261 10.18C53.1261 7.387 51.2151 5.791 48.9051 5.791C46.5951 5.791 44.6841 7.387 44.6841 10.18C44.6841 12.973 46.5951 14.569 48.9051 14.569ZM60.0682 19V1.36H70.0852C74.8942 1.36 77.7502 3.502 77.7502 8.248C77.7502 12.994 74.8942 15.136 70.1062 15.136H65.8852V19H60.0682ZM65.8852 10.306H69.5812C70.9882 10.306 71.8912 9.613 71.8912 8.248C71.8912 6.883 70.9882 6.19 69.6022 6.19H65.8852V10.306ZM80.6603 19.336C79.0853 19.336 77.7623 18.034 77.7623 16.48C77.7623 14.926 79.0853 13.624 80.6603 13.624C82.2353 13.624 83.5583 14.926 83.5583 16.48C83.5583 18.034 82.2353 19.336 80.6603 19.336ZM94.6191 19.588C88.6761 19.588 84.7071 15.829 84.7071 10.18C84.7071 4.531 88.6761 0.772 94.6191 0.772C98.9241 0.772 103.334 2.662 103.922 8.626H98.3781C97.8951 6.694 96.5301 5.791 94.6191 5.791C92.3091 5.791 90.4821 7.513 90.4821 10.18C90.4821 12.847 92.3091 14.569 94.6191 14.569C96.5301 14.569 97.8951 13.666 98.3781 11.692H103.922C103.334 17.698 98.9661 19.588 94.6191 19.588ZM114.981 19.588C108.912 19.588 104.985 15.829 104.985 10.18C104.985 4.531 108.912 0.772 114.981 0.772C121.05 0.772 124.977 4.531 124.977 10.18C124.977 15.829 121.05 19.588 114.981 19.588ZM114.981 14.569C117.291 14.569 119.202 12.973 119.202 10.18C119.202 7.387 117.291 5.791 114.981 5.791C112.671 5.791 110.76 7.387 110.76 10.18C110.76 12.973 112.671 14.569 114.981 14.569Z" fill="black"></path>
</symbol>
<symbol viewBox="0 0 24 24" fill="none" stroke="currentColor" stroke-width="2" stroke-linecap="round" stroke-linejoin="round" id="lucide/key-round">
  <path d="M2 18v3c0 .6.4 1 1 1h4v-3h3v-3h2l1.4-1.4a6.5 6.5 0 1 0-4-4Z" ></path>
  <circle cx="16.5" cy="7.5" r=".5" fill="currentColor" ></circle>
</symbol>
<symbol viewBox="0 0 24 24" fill="none" stroke="currentColor" stroke-width="2" stroke-linecap="round" stroke-linejoin="round" id="lucide/scan-face">
  <path d="M3 7V5a2 2 0 0 1 2-2h2" ></path>
  <path d="M17 3h2a2 2 0 0 1 2 2v2" ></path>
  <path d="M21 17v2a2 2 0 0 1-2 2h-2" ></path>
  <path d="M7 21H5a2 2 0 0 1-2-2v-2" ></path>
  <path d="M8 14s1.5 2 4 2 4-2 4-2" ></path>
  <path d="M9 9h.01" ></path>
  <path d="M15 9h.01" ></path>
</symbol>
<symbol viewBox="0 0 24 24" fill="none" stroke="currentColor" stroke-width="2" stroke-linecap="round" stroke-linejoin="round" id="lucide/x">
  <path d="M18 6 6 18" ></path>
  <path d="m6 6 12 12" ></path>
</symbol>
<symbol viewBox="0 0 16.875 13.125" fill="none" id="mail">
	<path id="Vector" d="M15.9375 0L0.9375 0C0.688843 0 0.450439 0.098877 0.274536 0.274658C0.0987549 0.450439 0 0.688965 0 0.9375L0 11.5625C0 11.9768 0.164673 12.3743 0.457642 12.6672C0.75061 12.9604 1.14807 13.125 1.5625 13.125L15.3125 13.125C15.7269 13.125 16.1243 12.9604 16.4174 12.6672C16.7103 12.3743 16.875 11.9768 16.875 11.5625L16.875 0.9375C16.875 0.688965 16.7762 0.450439 16.6005 0.274658C16.4246 0.098877 16.1862 0 15.9375 0ZM8.4375 6.54053L3.34766 1.875L13.5273 1.875L8.4375 6.54053ZM5.68677 6.5625L1.875 10.0562L1.875 3.06885L5.68677 6.5625ZM7.07422 7.83447L7.80396 8.50391C7.97681 8.66235 8.20288 8.75049 8.4375 8.75049C8.67212 8.75049 8.89819 8.66235 9.07104 8.50391L9.80078 7.83447L13.5273 11.25L3.34766 11.25L7.07422 7.83447ZM11.1882 6.5625L15 3.06885L15 10.0562L11.1882 6.5625Z" fill-rule="nonzero" fill="currentColor"></path>
</symbol>
<symbol viewBox="0 0 23 14" fill="none" id="Mastercard">
<path d="M14.0915 1.58446H8.20848V12.1565H14.0915V1.58446Z" fill="#FF5F00"></path>
<path d="M8.58206 6.87047C8.58113 5.85231 8.81185 4.84728 9.25675 3.93147C9.70166 3.01565 10.3491 2.21307 11.15 1.58446C10.1582 0.804839 8.96699 0.320005 7.71262 0.185372C6.45824 0.0507394 5.1913 0.271735 4.05659 0.82311C2.92188 1.37448 1.96519 2.23399 1.29587 3.30338C0.626547 4.37277 0.271606 5.60889 0.271606 6.87047C0.271606 8.13205 0.626547 9.36818 1.29587 10.4376C1.96519 11.507 2.92188 12.3665 4.05659 12.9178C5.1913 13.4692 6.45824 13.6902 7.71262 13.5556C8.96699 13.4209 10.1582 12.9361 11.15 12.1565C10.3491 11.5279 9.70167 10.7253 9.25677 9.80947C8.81186 8.89366 8.58113 7.88863 8.58206 6.87047Z" fill="#EB001B"></path>
<path d="M22.0281 6.87047C22.0282 8.13203 21.6733 9.36815 21.004 10.4375C20.3347 11.5069 19.378 12.3664 18.2434 12.9178C17.1087 13.4692 15.8417 13.6902 14.5874 13.5556C13.333 13.4209 12.1419 12.9361 11.15 12.1565C11.9503 11.5272 12.5972 10.7245 13.042 9.80886C13.4869 8.89319 13.718 7.88847 13.718 6.87047C13.718 5.85247 13.4869 4.84775 13.042 3.93209C12.5972 3.01642 11.9503 2.2137 11.15 1.58446C12.1419 0.804838 13.333 0.320002 14.5874 0.185371C15.8417 0.0507393 17.1087 0.271745 18.2434 0.823125C19.378 1.37451 20.3347 2.23401 21.004 3.3034C21.6733 4.37279 22.0282 5.60891 22.0281 6.87047Z" fill="#F79E1B"></path>
<path d="M21.3867 11.0367V10.8203H21.4739V10.7762H21.2517V10.8203H21.339V11.0367H21.3867ZM21.8182 11.0367V10.7758H21.7501L21.6717 10.9553L21.5933 10.7758H21.5251V11.0367H21.5733V10.8399L21.6467 11.0096H21.6966L21.7701 10.8395V11.0367H21.8182Z" fill="#F79E1B"></path>
</symbol>
<symbol viewBox="0 0 24 24" fill="none" id="menu">
<rect width="24" height="24" fill="#9A9A9A"></rect>
<g id="Homepage" clip-path="url(#clip0_0_1)">
<rect width="390" height="4461" transform="translate(-16 -54)" fill="white"></rect>
<g id="Frame">
<path id="Vector" d="M21.375 12C21.375 12.2984 21.2565 12.5845 21.0455 12.7955C20.8345 13.0065 20.5484 13.125 20.25 13.125H3.75C3.45163 13.125 3.16548 13.0065 2.9545 12.7955C2.74353 12.5845 2.625 12.2984 2.625 12C2.625 11.7016 2.74353 11.4155 2.9545 11.2045C3.16548 10.9935 3.45163 10.875 3.75 10.875H20.25C20.5484 10.875 20.8345 10.9935 21.0455 11.2045C21.2565 11.4155 21.375 11.7016 21.375 12ZM3.75 7.125H20.25C20.5484 7.125 20.8345 7.00647 21.0455 6.7955C21.2565 6.58452 21.375 6.29837 21.375 6C21.375 5.70163 21.2565 5.41548 21.0455 5.2045C20.8345 4.99353 20.5484 4.875 20.25 4.875H3.75C3.45163 4.875 3.16548 4.99353 2.9545 5.2045C2.74353 5.41548 2.625 5.70163 2.625 6C2.625 6.29837 2.74353 6.58452 2.9545 6.7955C3.16548 7.00647 3.45163 7.125 3.75 7.125ZM20.25 16.875H3.75C3.45163 16.875 3.16548 16.9935 2.9545 17.2045C2.74353 17.4155 2.625 17.7016 2.625 18C2.625 18.2984 2.74353 18.5845 2.9545 18.7955C3.16548 19.0065 3.45163 19.125 3.75 19.125H20.25C20.5484 19.125 20.8345 19.0065 21.0455 18.7955C21.2565 18.5845 21.375 18.2984 21.375 18C21.375 17.7016 21.2565 17.4155 21.0455 17.2045C20.8345 16.9935 20.5484 16.875 20.25 16.875Z" fill="black"></path>
</g>
</g>
<defs>
<clipPath id="clip0_0_1">
<rect width="390" height="4461" fill="white" transform="translate(-16 -54)"></rect>
</clipPath>
</defs>
</symbol>
<symbol viewBox="0 0 31 9" fill="none" id="Paypal">
<path fill-rule="evenodd" clip-rule="evenodd" d="M4.22671 0.125349H1.92304C1.7654 0.125349 1.63133 0.239907 1.60674 0.395458L0.675024 6.30206C0.656505 6.41864 0.746777 6.52369 0.865013 6.52369H1.9648C2.12245 6.52369 2.25652 6.40914 2.2811 6.25327L2.5324 4.66019C2.55664 4.50417 2.69104 4.38977 2.84836 4.38977H3.57762C5.09512 4.38977 5.97086 3.6555 6.1997 2.20051C6.30274 1.56397 6.20406 1.0638 5.90586 0.713419C5.57851 0.328904 4.99769 0.125349 4.22671 0.125349ZM4.49248 2.28265C4.36653 3.1092 3.73493 3.10919 3.12423 3.10919H2.7766L3.02048 1.56553C3.03496 1.47232 3.1158 1.40358 3.21012 1.40358H3.36945C3.78545 1.40358 4.17792 1.40358 4.38072 1.64065C4.50153 1.78217 4.53862 1.99228 4.49248 2.28265ZM11.1129 2.25616H10.0098C9.91576 2.25616 9.83454 2.32489 9.82005 2.41825L9.77125 2.72671L9.69409 2.61495C9.45528 2.26831 8.92279 2.15251 8.39124 2.15251C7.17209 2.15251 6.13095 3.07569 5.92815 4.37075C5.82278 5.01665 5.97258 5.63434 6.33906 6.06514C6.67529 6.46119 7.15634 6.62625 7.72858 6.62625C8.71079 6.62625 9.2556 5.99469 9.2556 5.99469L9.20634 6.30128C9.18779 6.41849 9.27804 6.52354 9.39558 6.52354H10.3893C10.5474 6.52354 10.6807 6.40898 10.7056 6.25311L11.3019 2.47779C11.3207 2.36168 11.2308 2.25616 11.1129 2.25616ZM9.57515 4.40301C9.46869 5.03317 8.96846 5.45619 8.3306 5.45619C8.01026 5.45619 7.75415 5.35347 7.58985 5.1588C7.4268 4.96553 7.36475 4.69027 7.41666 4.38385C7.51612 3.75899 8.02476 3.32226 8.65296 3.32226C8.96613 3.32226 9.22084 3.42622 9.38857 3.62261C9.55661 3.82102 9.62332 4.09783 9.57515 4.40301ZM15.8796 2.256H16.9883C17.1435 2.256 17.2341 2.4301 17.1459 2.55744L13.4588 7.87892C13.3991 7.96512 13.3007 8.0164 13.1957 8.0164H12.0884C11.9325 8.0164 11.8415 7.84089 11.9318 7.71324L13.0798 6.09289L11.8588 2.5099C11.8166 2.38536 11.9085 2.256 12.041 2.256H13.1303C13.2719 2.256 13.3967 2.3489 13.4376 2.48434L14.0856 4.64835L15.6146 2.39643C15.6745 2.30853 15.7739 2.256 15.8796 2.256Z" fill="#253B80"></path>
<path fill-rule="evenodd" clip-rule="evenodd" d="M27.8995 6.30153L28.8449 0.28692C28.8594 0.193558 28.9403 0.124823 29.0343 0.124512H30.0987C30.2162 0.124512 30.3064 0.229874 30.2879 0.34646L29.3556 6.25275C29.3312 6.40861 29.1972 6.52317 29.0393 6.52317H28.0887C27.9712 6.52317 27.8809 6.41811 27.8995 6.30153ZM20.6589 0.124821H18.3549C18.1976 0.124821 18.0635 0.239381 18.0389 0.394932L17.1072 6.30153C17.0886 6.41811 17.1789 6.52317 17.2966 6.52317H18.4788C18.5887 6.52317 18.6827 6.44305 18.6998 6.33395L18.9642 4.65967C18.9885 4.50365 19.1229 4.38924 19.2802 4.38924H20.0091C21.5269 4.38924 22.4025 3.65497 22.6315 2.19999C22.7348 1.56344 22.6355 1.06327 22.3375 0.712894C22.0103 0.328379 21.4299 0.124821 20.6589 0.124821ZM20.9247 2.28213C20.7991 3.10867 20.1674 3.10867 19.5564 3.10867H19.2091L19.4533 1.565C19.4678 1.47179 19.548 1.40306 19.6426 1.40306H19.8019C20.2176 1.40306 20.6105 1.40306 20.8131 1.64012C20.9341 1.78165 20.9709 1.99175 20.9247 2.28213ZM27.5445 2.25563H26.4421C26.3474 2.25563 26.2669 2.32437 26.2527 2.41773L26.204 2.72618L26.1265 2.61443C25.8877 2.26779 25.3555 2.15198 24.8239 2.15198C23.6048 2.15198 22.564 3.07516 22.3612 4.37023C22.2561 5.01613 22.4053 5.63381 22.7718 6.06462C23.1086 6.46067 23.589 6.62573 24.1613 6.62573C25.1435 6.62573 25.6881 5.99417 25.6881 5.99417L25.639 6.30075C25.6205 6.41796 25.7107 6.52301 25.8291 6.52301H26.8223C26.9796 6.52301 27.1137 6.40845 27.1383 6.25259L27.7349 2.47727C27.7531 2.36115 27.6628 2.25563 27.5445 2.25563ZM26.0069 4.40249C25.9011 5.03265 25.4002 5.45566 24.7622 5.45566C24.4425 5.45566 24.1859 5.35295 24.0215 5.15827C23.8584 4.965 23.7971 4.68975 23.8484 4.38332C23.9483 3.75847 24.4564 3.32174 25.0846 3.32174C25.3979 3.32174 25.6524 3.4257 25.8203 3.62208C25.989 3.8205 26.0557 4.09731 26.0069 4.40249Z" fill="#179BD7"></path>
</symbol>
<symbol viewBox="0 0 127 21" fill="none" id="prada">
<g clip-path="url(#clip0_35_802)">
<path fill-rule="evenodd" clip-rule="evenodd" d="M0 0.591732L1.91951 2.76177V18.6444L0.496854 20.7226L9.20973 20.736L7.63931 18.8237L7.47624 13.1039L15.8773 13.1496C18.4238 12.2997 21.0415 10.4878 21.1672 6.8247C21.1271 3.27485 18.9651 0.998025 16.455 0.545043L0 0.591732ZM7.16493 1.60746V11.811L13.6106 11.8577C15.0773 10.6721 16.1891 9.76411 16.1446 6.91758C16.1236 4.59655 15.6349 2.57253 13.4772 1.60796L7.16493 1.60746ZM25.1994 0.476003L27.119 2.64654V18.5292L25.6963 20.6084L34.4087 20.6208L32.8383 18.7085L32.6752 12.9886H32.7101L41.7113 20.6853L49.1814 20.6243L42.3636 14.7126H36.672L34.666 12.9996L41.0763 13.0343C43.6227 12.1845 46.2399 10.3726 46.3662 6.70947C46.3265 3.16012 44.1645 0.882792 41.654 0.430307L25.1994 0.476003ZM32.3639 1.49173V11.6952L38.8096 11.7419C40.2767 10.5563 41.3881 9.64839 41.3436 6.80136C41.3226 4.48082 40.8338 2.45631 38.6762 1.49173H32.3639ZM56.3731 0.453155H63.8857L73.6649 18.6444C74.0882 20.0491 75.354 19.8757 76.1989 20.4916H66.7305L68.1532 20.0456L68.0642 18.6911L65.6192 14.7663L57.3065 14.813L55.5286 18.5992C55.4693 19.0299 55.0097 19.3567 55.3507 19.8916L56.0178 20.5378L51.9282 20.4454L53.7066 19.8916L60.4182 5.71708V4.74704L57.5825 0.954812L56.3731 0.453155ZM57.8321 13.5171L61.2847 6.96427L64.8794 13.4804L57.8321 13.5171ZM107.174 0.49289H114.686L124.466 18.6842C124.889 20.0888 126.155 19.9155 127 20.5314H117.531L118.954 20.0843L118.865 18.7299L116.42 14.806L108.108 14.8527L106.33 18.638C106.27 19.0696 105.811 19.3964 106.151 19.9314L106.818 20.5776L102.729 20.4852L104.508 19.9314L111.219 5.75682V4.78628L108.384 0.994548L107.174 0.49289ZM108.633 13.5573L112.086 7.0045L115.681 13.5196L108.633 13.5573ZM78.797 0.263916L92.1801 0.337923C96.4896 1.34968 99.2317 3.98909 100.082 8.59342L100.046 12.1845C99.2603 16.2871 96.6857 19.1178 92.1447 20.5507L78.7258 20.5885L78.7239 20.1539C80.7639 19.9994 80.9269 19.766 80.9322 18.5521V2.18859C80.9093 1.29107 80.7304 0.732295 78.7612 0.670705L78.797 0.263916ZM86.4043 1.66409L86.3914 19.3681C88.1564 19.3741 89.6877 19.54 90.5527 19.0974C92.5129 18.1999 93.4234 16.8216 93.5066 15.5267L93.4597 5.07287C93.4602 3.40052 91.6497 2.21988 90.6044 1.91243C89.8569 1.63478 88.3654 1.62336 86.4043 1.66409Z" fill="white" stroke="white" stroke-width="0.718154" stroke-miterlimit="2.613"></path>
</g>
<defs>
<clipPath id="clip0_35_802">
<rect width="127" height="21" fill="white"></rect>
</clipPath>
</defs>
</symbol>
<symbol viewBox="0 0 24 24" fill="none" id="profile">
<path d="M12 1.875C9.99747 1.875 8.0399 2.46882 6.37486 3.58137C4.70981 4.69392 3.41206 6.27523 2.64572 8.12533C1.87939 9.97543 1.67888 12.0112 2.06955 13.9753C2.46023 15.9393 3.42454 17.7435 4.84055 19.1595C6.25656 20.5755 8.06066 21.5398 10.0247 21.9305C11.9888 22.3211 14.0246 22.1206 15.8747 21.3543C17.7248 20.5879 19.3061 19.2902 20.4186 17.6251C21.5312 15.9601 22.125 14.0025 22.125 12C22.122 9.3156 21.0543 6.74199 19.1562 4.84383C17.258 2.94567 14.6844 1.87798 12 1.875ZM7.45969 18.4284C7.98195 17.7143 8.66528 17.1335 9.45418 16.7331C10.2431 16.3327 11.1153 16.124 12 16.124C12.8847 16.124 13.7569 16.3327 14.5458 16.7331C15.3347 17.1335 16.0181 17.7143 16.5403 18.4284C15.2134 19.3695 13.6268 19.875 12 19.875C10.3732 19.875 8.78665 19.3695 7.45969 18.4284ZM9.375 11.25C9.375 10.7308 9.52896 10.2233 9.8174 9.79163C10.1058 9.35995 10.5158 9.0235 10.9955 8.82482C11.4751 8.62614 12.0029 8.57415 12.5121 8.67544C13.0213 8.77672 13.489 9.02673 13.8562 9.39384C14.2233 9.76096 14.4733 10.2287 14.5746 10.7379C14.6759 11.2471 14.6239 11.7749 14.4252 12.2545C14.2265 12.7342 13.8901 13.1442 13.4584 13.4326C13.0267 13.721 12.5192 13.875 12 13.875C11.3038 13.875 10.6361 13.5984 10.1438 13.1062C9.65157 12.6139 9.375 11.9462 9.375 11.25ZM18.1875 16.8694C17.4583 15.9419 16.5289 15.1914 15.4688 14.6737C16.1444 13.9896 16.6026 13.1208 16.7858 12.1769C16.9689 11.2329 16.8688 10.2558 16.498 9.36861C16.1273 8.4814 15.5024 7.72364 14.702 7.19068C13.9017 6.65771 12.9616 6.37334 12 6.37334C11.0384 6.37334 10.0983 6.65771 9.29797 7.19068C8.49762 7.72364 7.87275 8.4814 7.50198 9.36861C7.13121 10.2558 7.0311 11.2329 7.21424 12.1769C7.39739 13.1208 7.85561 13.9896 8.53125 14.6737C7.4711 15.1914 6.54168 15.9419 5.8125 16.8694C4.89661 15.7083 4.32614 14.3129 4.1664 12.8427C4.00665 11.3725 4.2641 9.88711 4.90925 8.55644C5.55441 7.22578 6.5612 6.10366 7.81439 5.31855C9.06757 4.53343 10.5165 4.11703 11.9953 4.11703C13.4741 4.11703 14.9231 4.53343 16.1762 5.31855C17.4294 6.10366 18.4362 7.22578 19.0814 8.55644C19.7265 9.88711 19.984 11.3725 19.8242 12.8427C19.6645 14.3129 19.094 15.7083 18.1781 16.8694H18.1875Z" fill="black"></path>
</symbol>
<symbol viewBox="0 0 24 24" fill="none" id="search">
<path d="M21.7959 20.2041L17.3437 15.75C18.6787 14.0104 19.3019 11.8282 19.087 9.64607C18.8722 7.4639 17.8353 5.44516 16.1867 3.99937C14.5382 2.55357 12.4014 1.78899 10.2098 1.86071C8.01829 1.93244 5.93607 2.8351 4.38558 4.38559C2.83509 5.93608 1.93243 8.0183 1.8607 10.2098C1.78898 12.4014 2.55356 14.5382 3.99936 16.1867C5.44515 17.8353 7.46389 18.8722 9.64606 19.087C11.8282 19.3019 14.0104 18.6787 15.75 17.3438L20.2059 21.8006C20.3106 21.9053 20.4348 21.9883 20.5715 22.0449C20.7083 22.1016 20.8548 22.1307 21.0028 22.1307C21.1508 22.1307 21.2973 22.1016 21.4341 22.0449C21.5708 21.9883 21.695 21.9053 21.7997 21.8006C21.9043 21.696 21.9873 21.5717 22.044 21.435C22.1006 21.2983 22.1298 21.1517 22.1298 21.0037C22.1298 20.8558 22.1006 20.7092 22.044 20.5725C21.9873 20.4358 21.9043 20.3115 21.7997 20.2069L21.7959 20.2041ZM4.12499 10.5C4.12499 9.23915 4.49888 8.0066 5.19938 6.95824C5.89987 5.90988 6.89551 5.09278 8.06039 4.61027C9.22527 4.12776 10.5071 4.00151 11.7437 4.2475C12.9803 4.49348 14.1162 5.10064 15.0078 5.9922C15.8994 6.88376 16.5065 8.01967 16.7525 9.2563C16.9985 10.4929 16.8722 11.7747 16.3897 12.9396C15.9072 14.1045 15.0901 15.1001 14.0418 15.8006C12.9934 16.5011 11.7608 16.875 10.5 16.875C8.80977 16.8733 7.18927 16.2011 5.99411 15.0059C4.79894 13.8107 4.12673 12.1902 4.12499 10.5Z" fill="black"></path>
</symbol>
<symbol viewBox="0 0 44 44" fill="none" id="star">
<path d="M22 0C22.7469 11.8271 32.1728 21.2531 44 22C32.1728 22.7469 22.7469 32.1728 22 44C21.2531 32.1728 11.8271 22.7469 0 22C11.8271 21.2531 21.2531 11.8271 22 0Z" fill="black"></path>
</symbol>
<symbol viewBox="0 0 15.4375 15.4375" fill="none" id="verification">
	<path id="Vector" d="M7.71875 0C6.19214 0 4.69983 0.452637 3.43042 1.30078C2.16113 2.14893 1.17175 3.35449 0.587524 4.76489C0.0032959 6.17529 -0.149536 7.72729 0.148315 9.22461C0.446167 10.7219 1.18127 12.0972 2.26074 13.1768C3.34021 14.2561 4.71558 14.9915 6.21289 15.2893C7.71021 15.5869 9.26221 15.4341 10.6726 14.8499C12.083 14.2656 13.2885 13.2764 14.1367 12.0071C14.9849 10.7378 15.4375 9.24536 15.4375 7.71875C15.4353 5.67236 14.6215 3.71021 13.1743 2.26318C11.7273 0.816162 9.76526 0.00219727 7.71875 0ZM11.1075 6.35767L6.95129 10.5139C6.89624 10.5691 6.83069 10.6128 6.75867 10.6428C6.68652 10.6726 6.60925 10.688 6.53125 10.688C6.45325 10.688 6.37598 10.6726 6.30383 10.6428C6.23181 10.6128 6.16626 10.5691 6.11121 10.5139L4.32996 8.73267C4.21851 8.62109 4.15588 8.46997 4.15588 8.3125C4.15588 8.15503 4.21851 8.00391 4.32996 7.89233C4.44128 7.78101 4.59241 7.71851 4.75 7.71851C4.90759 7.71851 5.05872 7.78101 5.17004 7.89233L6.53125 9.25439L10.2675 5.51733C10.3226 5.46216 10.3881 5.41846 10.4602 5.38867C10.5322 5.35889 10.6095 5.34351 10.6875 5.34351C10.7655 5.34351 10.8428 5.35889 10.9148 5.38867C10.9869 5.41846 11.0524 5.46216 11.1075 5.51733C11.1627 5.57251 11.2065 5.63818 11.2363 5.71021C11.2662 5.78223 11.2816 5.85938 11.2816 5.9375C11.2816 6.01562 11.2662 6.09277 11.2363 6.16479C11.2065 6.23682 11.1627 6.30249 11.1075 6.35767Z" fill-rule="nonzero" fill="#01AB31"></path>
</symbol>
<symbol viewBox="0 0 117 24" fill="none" id="versace">
<path fill-rule="evenodd" clip-rule="evenodd" d="M105.305 0.862209H116.736V2.68371C116.404 2.57222 116.057 2.51474 115.707 2.51349H109.135V11.025H115.527C115.987 11.025 116.395 10.9746 116.736 10.8887V12.7022C116.446 12.6343 116.047 12.5999 115.553 12.5999H109.135V21.4009H115.51C115.86 21.4009 116.277 21.35 116.736 21.2392V23.1969H105.322C105.413 22.8526 105.459 22.4979 105.458 22.1417V1.94293C105.458 1.50066 105.407 1.13476 105.305 0.862209ZM102.659 6.65867L99.3559 6.63371C99.1942 4.77776 98.1305 2.98122 95.7898 2.65026C90.7761 2.19901 89.3629 7.70544 89.4907 11.7318C89.619 15.6129 90.2394 21.5796 95.4149 21.5796C97.5858 21.5796 99.6709 19.3493 99.6025 17.4684L102.659 17.4434C102.437 21.3245 97.9857 23.5713 95.8662 23.6482C88.6231 23.8953 85.5921 19.0687 85.4393 12.1821C85.3036 5.94434 87.8569 0.402466 95.0151 0.402466C101.143 0.487825 102.327 4.11386 102.659 6.65867ZM51.1458 20.6601L53.3337 18.8301C54.4738 20.7115 55.4103 21.5706 57.6746 21.5706C59.9723 21.5706 61.9051 20.1749 61.9051 17.707C61.9051 16.4895 61.4109 15.4936 60.4325 14.7449C59.9892 14.3954 58.8661 13.7914 57.0955 12.9488C54.4484 11.6809 51.8696 10.0291 51.8696 6.71008C51.8696 2.52198 55.4273 0.675017 59.1806 0.538242C61.4024 0.453382 64.1604 1.67986 65.275 3.05809L63.0537 4.76878C62.6575 4.02944 62.0685 3.41118 61.3492 2.97964C60.6299 2.54811 59.8072 2.3194 58.9684 2.31781C56.1336 2.31781 53.8868 5.6034 56.2359 7.86768C56.8314 8.44622 58.0494 9.16105 59.9049 10.0121C62.8665 11.3999 65.3943 13.0591 65.3943 16.7281C65.3943 17.996 65.0624 19.1791 64.407 20.2603C63.0881 22.4392 60.8833 23.5289 57.8023 23.5289C54.2612 23.5289 53.5638 22.7202 51.1458 20.6601ZM19.9766 0.862209H31.3983V2.68371C31.0665 2.57226 30.719 2.51479 30.369 2.51349H23.7983V11.025H30.1903C30.65 11.025 31.0589 10.9746 31.3988 10.8887V12.7022C31.1093 12.6343 30.7094 12.5999 30.2247 12.5999H23.7983V21.4009H30.1733C30.5223 21.4009 30.9396 21.35 31.3988 21.2392V23.1969H19.9941C20.0775 22.8513 20.1202 22.4972 20.1214 22.1417V1.94293C20.1214 1.50066 20.07 1.13476 19.9766 0.862209ZM0 0.862209H4.15366V1.06687C4.15366 1.25406 4.21306 1.50066 4.3154 1.81564L10.1708 19.4431L16.1804 1.73877C16.2737 1.44126 16.3251 1.15173 16.3251 0.862209H18.3423C18.1381 1.21962 17.9849 1.5351 17.891 1.81564L11.0303 22.2864C10.9625 22.4821 10.9031 22.7886 10.8521 23.1974H7.44724C7.39579 22.888 7.31899 22.5833 7.21762 22.2864L0.493687 1.97737C0.338365 1.60282 0.17644 1.23104 0.00798685 0.862209H0ZM44.1154 12.5065C46.8389 11.9699 48.9245 9.88485 48.9245 6.90576C48.9245 2.99819 45.6558 0.86171 41.9959 0.86171H35.3059C35.3992 1.20265 35.4506 1.56006 35.4506 1.93444V22.1237C35.4506 22.558 35.3992 22.9239 35.3059 23.1964H39.2893C39.1919 22.8472 39.1432 22.4862 39.1446 22.1237V12.847L40.421 12.9833L47.0945 23.1964H51.1034L44.1154 12.5065ZM43.426 10.8043C42.7027 11.3145 41.8341 11.5696 40.8383 11.5696H39.1361V2.48903H40.6596C41.9624 2.48903 42.9748 2.812 43.6986 3.45843C44.6859 4.35296 45.1881 5.56147 45.1881 7.07648C45.1881 8.71079 44.6006 9.95374 43.426 10.8048M84.7754 22.2695L77.3367 1.60299C77.254 1.36404 77.2053 1.11469 77.1919 0.862209H73.9737C73.9737 1.12627 73.9313 1.40681 73.829 1.68785L66.6203 22.2695C66.526 22.5665 66.3732 22.8735 66.1691 23.1969H68.2457C68.2377 22.8565 68.2801 22.5415 68.3739 22.2695L70.5094 16.2H78.7234L80.8344 22.27C80.9452 22.6009 80.9962 22.9074 80.9962 23.1969H85.3036C85.056 22.848 84.8778 22.533 84.7754 22.2695ZM71.0715 14.5572L74.5443 4.47127L78.1109 14.5572H71.0715Z" fill="white"></path>
</symbol>
<symbol viewBox="0 0 29 10" fill="none" id="Visa">
<path d="M14.7341 0.675491L12.8703 9.38748H10.6167L12.4807 0.675491H14.7341ZM24.2159 6.30085L25.4024 3.0292L26.0851 6.30085H24.2159ZM26.7304 9.38748H28.8149L26.9959 0.675491H25.0718C24.6394 0.675491 24.2746 0.926965 24.1122 1.31465L20.7311 9.38748H23.0978L23.5676 8.08654H26.459L26.7304 9.38748ZM20.8486 6.54295C20.8582 4.24356 17.6688 4.11699 17.6908 3.08986C17.6974 2.7769 17.9955 2.44491 18.6465 2.35971C18.97 2.31752 19.8592 2.28526 20.869 2.74988L21.2644 0.902424C20.722 0.705546 20.0241 0.516113 19.1561 0.516113C16.9287 0.516113 15.3608 1.70041 15.3476 3.39621C15.3335 4.65027 16.4668 5.3501 17.3208 5.76702C18.1987 6.19414 18.4938 6.46767 18.4899 6.84957C18.4841 7.43441 17.7895 7.69195 17.1415 7.70216C16.0083 7.72008 15.3506 7.39636 14.8264 7.15206L14.4181 9.061C14.9445 9.30282 15.9164 9.51294 16.9248 9.52369C19.292 9.52369 20.8409 8.354 20.8486 6.54295ZM11.5137 0.675491L7.86237 9.38748H5.47971L3.68299 2.43471C3.5738 2.00648 3.47895 1.84986 3.14723 1.66926C2.60596 1.37559 1.71118 1.09958 0.92395 0.928619L0.977719 0.675491H4.81242C5.30103 0.675491 5.74083 1.00086 5.85168 1.56365L6.80078 6.60527L9.14594 0.675491H11.5137Z" fill="#1434CB"></path>
</symbol>
<symbol viewBox="0 0 65 27" fill="none" id="zara">
  <g clip-path="url(#clip0_35_798)">
    <path d="M61.2723 25.852L51.8186 0.0227119L51.8121 0.00561523H51.6255L49.6788 5.31343L46.1347 14.9765L46.1264 14.9688C44.898 13.8932 43.1651 13.2209 40.9825 12.9705L40.3169 12.9023L40.9772 12.8183C44.5764 12.1765 46.9958 9.92072 46.9958 7.20299C46.9958 3.47617 43.4636 0.874885 38.4038 0.874885H27.8763V1.06358H30.9353V20.3207L23.5061 0.0226486L23.4994 0.00561523H23.3128L21.366 5.31343L13.8573 25.7855L13.8111 25.7908C13.6828 25.8065 13.5559 25.819 13.4303 25.8284C13.2415 25.8431 13.0537 25.8519 12.8653 25.8519H5.27843L19.7001 1.06352L19.8073 0.877228H2.16903V8.54539H2.35618C2.38936 4.81034 4.58132 1.06352 9.42428 1.06352H15.2669L0.736328 26.0376H20.3119V18.691H20.1247C20.0992 21.9464 18.2395 25.0385 14.1956 25.7367L14.067 25.7585L17.1468 17.358H25.7743L28.883 25.852H25.8164V26.0377H37.853V25.852H34.7732V13.0393H38.3268C41.9432 13.0393 44.0173 14.6426 44.0173 17.4367V19.7094C44.0173 19.9599 44.0344 20.326 44.0534 20.6322V20.6434L42.1433 25.8507H39.6481V26.0365H44.8132V25.8507H42.3448L44.0842 21.1089C44.0878 21.1547 44.0896 21.1824 44.0896 21.1824L44.1376 21.6096L44.1838 21.8923C44.474 23.6408 45.1479 24.9262 46.1862 25.7126L46.3355 25.8202C47.1243 26.3644 48.1046 26.64 49.2506 26.64C50.7686 26.64 51.7807 26.2645 52.6164 25.3806L52.5069 25.2783C51.7369 25.9835 51.0907 26.2692 50.2811 26.2692C48.9017 26.2692 48.1798 24.6088 48.1798 22.9714V19.787C48.1871 18.9969 48.0624 18.211 47.8108 17.4614L47.7765 17.3626V17.3591H54.0869L57.1957 25.8531H54.129V26.0388H64.5452V25.8531L61.2723 25.852ZM17.2155 17.1722L21.4656 5.58501L25.7062 17.1722H17.2155ZM34.775 12.8529V1.06352H37.4875C41.111 1.06352 43.024 3.20111 43.024 7.24301C43.024 11.5417 41.9259 12.8529 38.3268 12.8529H34.775ZM47.7029 17.1722L47.6846 17.1264C47.4041 16.4486 46.9958 15.8302 46.4816 15.3044L46.304 15.128L46.285 15.1104L49.7758 5.58501L54.0164 17.1722H47.7029Z" fill="white"></path>
  </g>
  <defs>
    <clipPath id="clip0_35_798">
      <rect width="63.8088" height="26.6454" fill="white" transform="translate(0.736328)"></rect>
    </clipPath>
  </defs>
</symbol>
</defs>
</svg>
