<svg width="16.875000" height="13.125000" viewBox="0 0 16.875 13.125" fill="none" xmlns="http://www.w3.org/2000/svg" xmlns:xlink="http://www.w3.org/1999/xlink">
	<path id="Vector" d="M15.9375 0L0.9375 0C0.688843 0 0.450439 0.098877 0.274536 0.274658C0.0987549 0.450439 0 0.688965 0 0.9375L0 11.5625C0 11.9768 0.164673 12.3743 0.457642 12.6672C0.75061 12.9604 1.14807 13.125 1.5625 13.125L15.3125 13.125C15.7269 13.125 16.1243 12.9604 16.4174 12.6672C16.7103 12.3743 16.875 11.9768 16.875 11.5625L16.875 0.9375C16.875 0.688965 16.7762 0.450439 16.6005 0.274658C16.4246 0.098877 16.1862 0 15.9375 0ZM8.4375 6.54053L3.34766 1.875L13.5273 1.875L8.4375 6.54053ZM5.68677 6.5625L1.875 10.0562L1.875 3.06885L5.68677 6.5625ZM7.07422 7.83447L7.80396 8.50391C7.97681 8.66235 8.20288 8.75049 8.4375 8.75049C8.67212 8.75049 8.89819 8.66235 9.07104 8.50391L9.80078 7.83447L13.5273 11.25L3.34766 11.25L7.07422 7.83447ZM11.1882 6.5625L15 3.06885L15 10.0562L11.1882 6.5625Z" fill-rule="nonzero" fill="#000000" fill-opacity="0.400000"/>
</svg>
