<svg width="15.437500" height="15.437500" viewBox="0 0 15.4375 15.4375" fill="none" xmlns="http://www.w3.org/2000/svg" xmlns:xlink="http://www.w3.org/1999/xlink">
	<path id="Vector" d="M7.71875 0C6.19214 0 4.69983 0.452637 3.43042 1.30078C2.16113 2.14893 1.17175 3.35449 0.587524 4.76489C0.0032959 6.17529 -0.149536 7.72729 0.148315 9.22461C0.446167 10.7219 1.18127 12.0972 2.26074 13.1768C3.34021 14.2561 4.71558 14.9915 6.21289 15.2893C7.71021 15.5869 9.26221 15.4341 10.6726 14.8499C12.083 14.2656 13.2885 13.2764 14.1367 12.0071C14.9849 10.7378 15.4375 9.24536 15.4375 7.71875C15.4353 5.67236 14.6215 3.71021 13.1743 2.26318C11.7273 0.816162 9.76526 0.00219727 7.71875 0ZM11.1075 6.35767L6.95129 10.5139C6.89624 10.5691 6.83069 10.6128 6.75867 10.6428C6.68652 10.6726 6.60925 10.688 6.53125 10.688C6.45325 10.688 6.37598 10.6726 6.30383 10.6428C6.23181 10.6128 6.16626 10.5691 6.11121 10.5139L4.32996 8.73267C4.21851 8.62109 4.15588 8.46997 4.15588 8.3125C4.15588 8.15503 4.21851 8.00391 4.32996 7.89233C4.44128 7.78101 4.59241 7.71851 4.75 7.71851C4.90759 7.71851 5.05872 7.78101 5.17004 7.89233L6.53125 9.25439L10.2675 5.51733C10.3226 5.46216 10.3881 5.41846 10.4602 5.38867C10.5322 5.35889 10.6095 5.34351 10.6875 5.34351C10.7655 5.34351 10.8428 5.35889 10.9148 5.38867C10.9869 5.41846 11.0524 5.46216 11.1075 5.51733C11.1627 5.57251 11.2065 5.63818 11.2363 5.71021C11.2662 5.78223 11.2816 5.85938 11.2816 5.9375C11.2816 6.01562 11.2662 6.09277 11.2363 6.16479C11.2065 6.23682 11.1627 6.30249 11.1075 6.35767Z" fill-rule="nonzero" fill="#01AB31"/>
</svg>
